<svg width="25" height="25" viewBox="0 0 25 25" fill="none" xmlns="http://www.w3.org/2000/svg">
<circle cx="12.5" cy="12.5" r="12.5" fill="#4792DC"/>
<mask id="mask0_289_3890" style="mask-type:luminance" maskUnits="userSpaceOnUse" x="6" y="5" width="12" height="16">
<path d="M6.78516 5.7998H17.0572V20.1758H6.78516V5.7998Z" fill="white"/>
</mask>
<g mask="url(#mask0_289_3890)">
<path d="M8.77604 16.6709L8.73273 16.3622C8.50192 15.0293 8.5411 13.8739 8.8501 12.8963C9.09142 12.0312 9.91398 10.6795 11.3178 8.84124L11.5531 9.59255C11.8959 8.77768 12.2319 8.16587 12.5615 7.75674C12.9661 7.21768 13.4823 6.7613 14.11 6.3878C14.7219 6.01449 15.6901 5.81855 17.0148 5.7998C16.8134 7.17549 16.5504 8.1743 16.2258 8.79568C16.0089 9.24699 15.535 9.6683 14.8045 10.0596C14.7729 10.0956 14.855 10.1192 15.0504 10.1307L16.069 10.1102C15.016 11.8675 14.3247 12.9436 13.9955 13.3384C13.4144 14.0699 13.0109 14.4925 12.7846 14.6065C12.7045 14.6815 12.4777 14.8047 12.1042 14.9762C11.3725 15.2222 10.9359 15.3857 10.7935 15.4666C10.5042 15.6049 10.2104 15.8241 9.91248 16.1243C9.46848 16.5214 8.70667 17.5784 7.62723 19.2953C7.1131 19.8974 6.83654 20.1816 6.79773 20.1481C6.78798 20.0957 6.86185 19.9352 7.01954 19.6666L7.98592 18.1077L12.3134 11.488L8.77604 16.6709Z" fill="white"/>
</g>
<path d="M8.10547 19.9436C8.45853 19.7679 9.07878 19.359 9.66734 18.9902C10.2559 18.6213 10.8162 18.2947 11.35 18.0114C11.8838 17.7279 12.3962 17.4958 12.6863 17.3835C12.9765 17.2713 13.0645 17.2451 13.1533 17.2217C13.2422 17.1982 13.3318 17.1776 13.4224 17.1596C13.5128 17.1416 13.6041 17.1262 13.6673 17.1172C13.7305 17.1082 13.7548 17.1065 13.7721 17.1077C13.7892 17.1086 13.7991 17.1108 13.8028 17.1123C13.8068 17.1138 13.8073 17.1144 13.7978 17.0904C13.7882 17.0666 13.7869 17.0503 13.7571 17.1077C13.7273 17.165 13.6577 17.2648 13.5495 17.3968C13.4415 17.5286 13.2962 17.6902 13.1918 17.8143C13.0873 17.9385 13.0699 17.9857 13.0727 18.0532C13.0757 18.1209 13.1194 18.1882 13.1738 18.2178C13.228 18.2477 13.2745 18.2548 13.3159 18.2542C13.3575 18.2537 13.4035 18.2488 13.4571 18.2396C13.5109 18.2306 13.5741 18.2178 13.6476 18.2006C13.7209 18.1833 13.8051 18.162 14.0453 18.0928C14.2855 18.0234 14.6428 17.9163 14.9573 17.8202C15.2719 17.724 15.5436 17.6385 15.7722 17.5618C16.0005 17.4853 16.1854 17.415 16.3048 17.3765C16.4245 17.3381 16.4245 17.3381 16.3433 17.3572C16.3433 17.3572 16.176 17.376 15.9657 17.4047C15.7551 17.4332 15.5029 17.4782 15.2089 17.538C14.9149 17.5976 14.5787 17.6705 14.2007 17.7568C13.8227 17.8432 13.7353 17.8612 13.6573 17.8764C13.5793 17.8916 13.5132 17.903 13.4597 17.9111C13.4063 17.9192 13.3662 17.9237 13.3412 17.9248C13.3163 17.9259 13.3048 17.9246 13.3153 17.9282C13.3258 17.9315 13.3577 17.9548 13.3768 18.0007C13.3962 18.0465 13.3928 18.0748 13.3843 18.0887C13.3757 18.1023 13.5493 17.9231 13.6888 17.7637C13.8283 17.6045 13.9335 17.4701 14.0061 17.3567C14.0787 17.243 14.1195 17.1375 14.1 17.0216C14.0803 16.9059 14.0327 16.8545 13.9887 16.8266C13.9444 16.7985 13.8962 16.7808 13.8465 16.7722C13.797 16.7638 13.7468 16.7627 13.6977 16.7675C13.6487 16.7722 13.551 16.7865 13.453 16.8039C13.3551 16.8213 13.2578 16.8416 13.1616 16.8648C13.0652 16.8883 12.9698 16.9145 12.8713 16.9451C12.7729 16.9758 12.2614 17.1793 11.7285 17.4348C11.1957 17.6904 10.6437 17.9972 10.0797 18.3663C9.51584 18.7355 8.93984 19.1642 8.67247 19.4304C8.09797 19.9338 8.41241 19.7064 8.10547 19.9436Z" fill="white"/>
<path d="M16.8477 17.4427C16.8516 17.4421 16.8996 17.4384 17.0046 17.4309C17.1096 17.4234 17.2707 17.408 17.4872 17.3831C17.704 17.358 17.9764 17.3229 18.172 17.2771C18.3677 17.2314 18.4579 17.2104 18.552 17.1888C18.6462 17.1675 18.744 17.1442 18.8458 17.1189C18.9478 17.0936 19.0534 17.0645 19.1353 17.0491C19.2175 17.0338 19.2175 17.0338 19.1623 17.0401C19.1623 17.0401 19.0506 17.0415 18.9424 17.0403C18.834 17.039 18.73 17.0428 18.63 17.0488C18.5301 17.0548 18.4343 17.0628 18.3422 17.0726C18.2503 17.0823 17.94 17.1217 17.691 17.1819C17.442 17.2421 17.2489 17.2933 17.1117 17.3353C16.9744 17.3771 16.8927 17.4076 16.8696 17.4185C16.8417 17.432 16.8523 17.4399 16.8477 17.4427Z" fill="white"/>
</svg>
