<svg width="25" height="25" viewBox="0 0 25 25" fill="none" xmlns="http://www.w3.org/2000/svg">
<g clip-path="url(#clip0_289_3891)">
<path d="M12.5 25C19.4036 25 25 19.4036 25 12.5C25 5.59644 19.4036 0 12.5 0C5.59644 0 0 5.59644 0 12.5C0 19.4036 5.59644 25 12.5 25Z" fill="#FEE500"/>
<path d="M12.537 6.0332C8.64802 6.0332 5.51172 8.54222 5.51172 11.5882C5.51172 13.5653 6.81642 15.2966 8.77347 16.2851L8.11108 18.7591C8.09859 18.7961 8.09668 18.836 8.10554 18.874C8.11441 18.9121 8.13369 18.9471 8.16127 18.9748C8.20147 19.0102 8.25319 19.0298 8.30679 19.03C8.35123 19.0265 8.39339 19.0088 8.42722 18.9798L11.2775 17.058C11.6982 17.116 12.1223 17.1461 12.5471 17.1482C16.4311 17.1482 19.5724 14.6392 19.5724 11.5882C19.5724 8.5372 16.421 6.0332 12.537 6.0332Z" fill="#392020"/>
<path d="M7.97014 10.7099H7.20237C7.10722 10.7127 7.01323 10.6883 6.93139 10.6397C6.89507 10.6169 6.86383 10.5869 6.83965 10.5515C6.81547 10.5161 6.79887 10.476 6.79089 10.4339C6.78845 10.4072 6.78845 10.3804 6.79089 10.3537C6.7885 10.3037 6.7982 10.2539 6.81917 10.2084C6.84014 10.163 6.87174 10.1233 6.91132 10.0927C6.9988 10.0294 7.1044 9.9959 7.2124 9.99736H9.52574C9.62165 9.99398 9.71628 10.0203 9.79672 10.0726C9.8339 10.0944 9.8658 10.1242 9.8901 10.1597C9.91439 10.1953 9.93049 10.2358 9.93723 10.2784C9.93968 10.3034 9.93968 10.3286 9.93723 10.3537C9.93959 10.4044 9.92992 10.4549 9.90898 10.5011C9.88804 10.5474 9.85645 10.5879 9.81679 10.6196C9.73144 10.6829 9.62687 10.7148 9.52072 10.7099H8.77805V13.3495C8.78107 13.4056 8.77237 13.4619 8.75249 13.5146C8.73263 13.5673 8.70203 13.6153 8.66263 13.6555C8.62485 13.694 8.57945 13.7241 8.52932 13.744C8.47919 13.7639 8.42547 13.7731 8.37158 13.771C8.27734 13.7736 8.18509 13.7435 8.11064 13.6856C8.03975 13.6291 7.99165 13.549 7.97515 13.4599C7.97019 13.4233 7.97019 13.3861 7.97515 13.3495L7.97014 10.7099Z" fill="#FEE500"/>
<path d="M10.1567 10.1931C10.1788 10.1105 10.2306 10.039 10.3023 9.99232C10.3786 9.94907 10.4655 9.92819 10.5532 9.9321H10.7439C10.8368 9.92877 10.9289 9.95136 11.0098 9.99734C11.0955 10.055 11.1564 10.1428 11.1804 10.2432L12.184 13.0784C12.2101 13.1524 12.2318 13.2278 12.2493 13.3043C12.251 13.3361 12.251 13.3678 12.2493 13.3996C12.251 13.4486 12.242 13.4972 12.2229 13.5423C12.2038 13.5873 12.1752 13.6277 12.1389 13.6606C12.1037 13.6966 12.0615 13.7251 12.0149 13.7441C11.9683 13.7629 11.9182 13.7722 11.8679 13.7709C11.7905 13.7787 11.7128 13.7601 11.6472 13.7182C11.5817 13.6763 11.5322 13.6136 11.5066 13.5402L11.2958 12.9229H9.9761L9.76533 13.5402C9.74041 13.6151 9.69027 13.6791 9.62347 13.7211C9.55668 13.7632 9.47736 13.7808 9.39902 13.7709C9.31416 13.7732 9.23105 13.7467 9.16317 13.6957C9.09703 13.6431 9.05241 13.5682 9.03771 13.4849C9.03505 13.4566 9.03505 13.4279 9.03771 13.3996C9.0291 13.3498 9.0291 13.2989 9.03771 13.2491C9.03771 13.1939 9.07285 13.1337 9.09291 13.0784L10.1567 10.1931ZM10.6586 10.8505L10.1818 12.3559H11.1302L10.6586 10.8505Z" fill="#FEE500"/>
<path d="M12.3637 10.3536C12.3586 10.241 12.3983 10.131 12.4741 10.0475C12.5127 10.0087 12.5589 9.97828 12.6099 9.95841C12.6609 9.93852 12.7155 9.92953 12.7702 9.93206C12.8642 9.93097 12.9559 9.96098 13.0312 10.0174C13.1008 10.0763 13.1472 10.1581 13.1615 10.2482C13.1665 10.2832 13.1665 10.3187 13.1615 10.3536V12.9932H14.5415C14.6372 12.9919 14.7313 13.0179 14.8125 13.0684C14.849 13.0909 14.8804 13.1209 14.9047 13.1563C14.9289 13.1918 14.9454 13.2319 14.953 13.2742C14.953 13.2742 14.953 13.3243 14.953 13.3494C14.9554 13.3994 14.9457 13.4492 14.9248 13.4945C14.9038 13.54 14.8722 13.5798 14.8327 13.6104C14.7452 13.6737 14.6395 13.7072 14.5315 13.7057H12.8354C12.7274 13.7127 12.62 13.6845 12.5293 13.6254C12.4482 13.5648 12.3941 13.4747 12.3788 13.3745C12.3751 13.3194 12.3751 13.264 12.3788 13.2089L12.3637 10.3536Z" fill="#FEE500"/>
<path d="M15.0455 10.3533C15.0425 10.241 15.0819 10.1317 15.1559 10.0472C15.2311 9.97883 15.3276 9.93846 15.4291 9.93298C15.5305 9.9275 15.6307 9.95719 15.7129 10.017C15.7841 10.0754 15.8322 10.1572 15.8484 10.2478C15.8509 10.2829 15.8509 10.3182 15.8484 10.3533V11.5827L17.118 10.1174C17.1669 10.0674 17.2189 10.0205 17.2735 9.9769C17.3251 9.94621 17.3842 9.93053 17.4441 9.9317C17.5319 9.93121 17.6176 9.95749 17.69 10.007C17.7241 10.03 17.7532 10.0596 17.7757 10.0941C17.7981 10.1286 17.8134 10.1672 17.8205 10.2077C17.8225 10.2177 17.8225 10.2279 17.8205 10.2379C17.8181 10.2494 17.8181 10.2614 17.8205 10.273C17.8204 10.3258 17.8065 10.3776 17.7804 10.4235C17.7537 10.4721 17.7218 10.5175 17.685 10.559L16.852 11.4723L17.8556 13.0278V13.0781C17.9077 13.1499 17.9484 13.2296 17.9761 13.3139V13.3389C17.9819 13.3972 17.9735 13.4558 17.9516 13.5101C17.9297 13.5642 17.8951 13.6123 17.8506 13.6501C17.7669 13.7134 17.6645 13.7469 17.5596 13.7454C17.4899 13.7483 17.4206 13.7327 17.3589 13.7003C17.292 13.6554 17.237 13.5952 17.1982 13.5247L16.2649 12.0192L15.8182 12.4859V13.3239C15.8212 13.4362 15.7819 13.5454 15.7079 13.6301C15.6682 13.6688 15.6211 13.6991 15.5692 13.7189C15.5175 13.7387 15.4622 13.7478 15.4069 13.7454C15.3142 13.7474 15.2239 13.7173 15.1509 13.6602C15.08 13.6037 15.0319 13.5234 15.0154 13.4343C15.0105 13.3977 15.0105 13.3606 15.0154 13.3239L15.0455 10.3533Z" fill="#FEE500"/>
</g>
<defs>
<clipPath id="clip0_289_3891">
<rect width="25" height="25" fill="white"/>
</clipPath>
</defs>
</svg>
