<svg width="346" height="400" viewBox="0 0 346 400" fill="none" xmlns="http://www.w3.org/2000/svg">
<mask id="mask0_447_3694" style="mask-type:luminance" maskUnits="userSpaceOnUse" x="0" y="0" width="286" height="400">
<path d="M0.333252 0H285.667V399.333H0.333252V0Z" fill="white"/>
</mask>
<g mask="url(#mask0_447_3694)">
<path d="M55.604 301.964L54.4009 293.391C47.9894 256.365 49.078 224.271 57.6613 197.115C64.3644 173.084 87.2134 135.537 126.208 84.4746L132.745 105.344C142.265 82.709 151.599 65.7142 160.755 54.3496C171.995 39.3757 186.333 26.6986 203.771 16.3236C220.765 5.95378 247.661 0.511066 284.458 -0.00976562C278.864 38.2038 271.557 65.9486 262.542 83.209C256.515 95.7454 243.354 107.449 223.062 118.318C222.182 119.318 224.463 119.975 229.89 120.292L258.187 119.725C228.937 168.537 209.734 198.428 200.588 209.396C184.448 229.714 173.239 241.454 166.953 244.62C164.729 246.704 158.427 250.126 148.052 254.891C127.729 261.725 115.599 266.266 111.646 268.511C103.609 272.355 95.4478 278.443 87.1717 286.782C74.8384 297.813 53.6769 327.173 23.6925 374.865C9.4113 391.589 1.729 399.485 0.650879 398.553C0.380046 397.1 2.43213 392.641 6.81234 385.178L33.6561 341.876L153.864 157.995L55.604 301.964Z" fill="#4792DC"/>
</g>
<path d="M279.901 323.411C280.01 323.395 281.344 323.291 284.26 323.083C287.177 322.875 291.651 322.447 297.667 321.755C303.688 321.057 311.255 320.083 316.688 318.812C322.125 317.541 324.63 316.958 327.245 316.359C329.859 315.765 332.578 315.119 335.406 314.416C338.24 313.713 341.172 312.906 343.448 312.479C345.729 312.052 345.729 312.052 344.198 312.229C344.198 312.229 341.094 312.265 338.089 312.234C335.078 312.197 332.188 312.302 329.412 312.468C326.635 312.635 323.974 312.859 321.417 313.13C318.865 313.401 310.245 314.494 303.328 316.166C296.412 317.838 291.047 319.26 287.234 320.427C283.422 321.588 281.151 322.437 280.51 322.739C279.734 323.114 280.031 323.333 279.901 323.411Z" fill="#4792DC"/>
<path d="M37.0312 392.871C46.8385 387.99 64.0677 376.631 80.4167 366.386C96.7656 356.141 112.328 347.069 127.156 339.199C141.984 331.324 156.219 324.876 164.276 321.756C172.339 318.641 174.781 317.912 177.25 317.261C179.719 316.61 182.208 316.037 184.724 315.537C187.234 315.037 189.771 314.61 191.526 314.36C193.281 314.11 193.958 314.063 194.438 314.095C194.911 314.121 195.188 314.183 195.292 314.225C195.401 314.266 195.417 314.282 195.151 313.615C194.885 312.954 194.849 312.501 194.021 314.095C193.193 315.688 191.26 318.459 188.255 322.126C185.255 325.787 181.219 330.277 178.318 333.725C175.417 337.173 174.932 338.485 175.01 340.36C175.094 342.24 176.307 344.11 177.818 344.933C179.323 345.761 180.615 345.959 181.766 345.944C182.922 345.928 184.198 345.792 185.688 345.537C187.182 345.287 188.938 344.933 190.979 344.454C193.016 343.975 195.354 343.381 202.026 341.459C208.698 339.532 218.625 336.558 227.359 333.886C236.099 331.214 243.646 328.839 249.995 326.709C256.339 324.584 261.474 322.631 264.792 321.563C268.115 320.496 268.115 320.496 265.859 321.027C265.859 321.027 261.214 321.548 255.37 322.345C249.521 323.136 242.516 324.386 234.349 326.048C226.182 327.704 216.844 329.73 206.344 332.126C195.844 334.527 193.417 335.027 191.25 335.449C189.083 335.871 187.245 336.188 185.76 336.412C184.276 336.636 183.161 336.761 182.469 336.792C181.776 336.824 181.458 336.787 181.75 336.886C182.042 336.98 182.927 337.626 183.458 338.902C183.995 340.173 183.901 340.959 183.667 341.345C183.427 341.725 188.25 336.746 192.125 332.319C196 327.897 198.922 324.162 200.938 321.011C202.953 317.855 204.089 314.923 203.547 311.704C203 308.49 201.677 307.063 200.453 306.287C199.224 305.506 197.885 305.016 196.505 304.777C195.13 304.542 193.734 304.511 192.37 304.647C191.01 304.777 188.297 305.173 185.573 305.657C182.854 306.141 180.151 306.704 177.479 307.35C174.802 308.001 172.151 308.73 169.417 309.579C166.682 310.433 152.474 316.084 137.672 323.183C122.87 330.282 107.536 338.803 91.8698 349.058C76.2083 359.313 60.2083 371.22 52.7812 378.615C36.8229 392.6 45.5573 386.282 37.0312 392.871Z" fill="#4792DC"/>
</svg>
