<svg width="177" height="33" viewBox="0 0 177 33" fill="none" xmlns="http://www.w3.org/2000/svg">
<path d="M32.1639 14.1281C32.4426 14.1281 32.5861 14.2519 32.5963 14.4996C32.6047 14.7472 32.5726 15.1015 32.5017 15.5589C32.4882 15.6105 32.4814 15.6587 32.4814 15.7034C32.4814 15.7447 32.4713 15.7928 32.4544 15.8479L32.4274 15.9029C32.3902 16.1282 32.3463 16.3965 32.2923 16.7077C32.2416 17.0156 32.174 17.4507 32.0896 18.0147C32.5895 17.731 33.1502 17.4919 33.7718 17.2993C34.3967 17.1067 34.9945 16.9485 35.562 16.8247C36.1329 16.7008 36.6362 16.6183 37.0686 16.577C37.5009 16.5323 37.7863 16.5186 37.9265 16.5358C38.0296 16.5547 38.1461 16.5908 38.2778 16.6458C38.4079 16.6974 38.516 16.7559 38.6021 16.8247C38.6697 16.9124 38.7119 17.0018 38.7305 17.0929C38.7473 17.1807 38.6967 17.258 38.5751 17.3268C38.3859 17.4145 38.2508 17.4713 38.1697 17.4988C38.092 17.5263 38.0448 17.5401 38.0279 17.5401C37.9958 17.5538 37.9704 17.5607 37.9536 17.5607C37.935 17.5607 37.8995 17.571 37.8455 17.5882C37.5026 17.6811 37.0702 17.798 36.5484 17.9391C36.0299 18.0766 35.4945 18.2331 34.9405 18.4068C34.373 18.6046 33.8207 18.823 33.2853 19.0603C32.7483 19.2942 32.2804 19.5539 31.8802 19.8377C31.8616 20.0303 31.8481 20.216 31.8396 20.3949C31.8346 20.5703 31.8329 20.7354 31.8329 20.8901C31.8329 21.3304 31.8616 21.7225 31.9207 22.0664C31.9781 22.4104 32.0862 22.6701 32.245 22.8438C32.4155 23.0226 32.6182 23.1499 32.853 23.2221C33.0861 23.2909 33.3411 23.3253 33.6164 23.3253C33.7245 23.3253 33.8545 23.3253 34.0082 23.3253C34.1653 23.3253 34.3122 23.3081 34.4473 23.2703C34.7581 23.2015 35.0993 23.1017 35.4742 22.9676C35.8475 22.8352 36.214 22.689 36.5754 22.5273C36.9216 22.3898 37.2408 22.2453 37.5347 22.094C37.8319 21.9426 38.0752 21.8154 38.2643 21.7087C38.3319 21.6778 38.4873 21.6571 38.7305 21.6468C38.9737 21.6382 39.1713 21.6675 39.325 21.7362C39.4635 21.8102 39.4939 21.934 39.4128 22.1077C39.3351 22.2831 39.0142 22.5376 38.4467 22.8713H38.4737C38.1765 23.0501 37.8066 23.2496 37.3658 23.4697C36.9233 23.6899 36.4538 23.8962 35.9539 24.0889C35.4354 24.2815 34.9135 24.4448 34.3865 24.5773C33.8596 24.7114 33.3799 24.7768 32.9476 24.7768C32.4611 24.7768 32.0794 24.6976 31.8058 24.536C31.3194 24.2574 30.9715 23.8962 30.7655 23.456C30.5577 23.0157 30.4209 22.5136 30.3534 21.9495C30.2807 21.3854 30.2959 20.5376 30.4007 19.4043C30.5037 18.2675 30.6439 17.0018 30.8195 15.6071C30.8685 15.2907 30.9546 15.0361 31.0762 14.8435C31.1978 14.6509 31.3279 14.503 31.4681 14.3964C31.5897 14.2915 31.713 14.221 31.8396 14.1831C31.9697 14.147 32.0778 14.1281 32.1639 14.1281ZM38.2103 10.9569C38.8183 10.8193 39.2034 10.7849 39.3655 10.8537C39.531 10.9225 39.5614 11.0377 39.4533 11.1977C39.3486 11.3593 39.1628 11.5347 38.8926 11.7274C38.6257 11.92 38.3657 12.0782 38.1089 12.202C37.9688 12.2536 37.712 12.3361 37.3388 12.4497C36.9689 12.5649 36.5348 12.6939 36.0349 12.8349C35.5114 12.9776 34.9641 13.1289 34.3933 13.2889C33.8258 13.4454 33.2921 13.5847 32.7922 13.7085C32.2686 13.8512 31.8058 13.9665 31.4005 14.0524C30.9952 14.1402 30.7131 14.1935 30.556 14.2107C30.3669 14.2296 30.1794 14.2038 29.9953 14.135C29.8146 14.0628 29.6575 13.9733 29.5224 13.8667C29.3636 13.7618 29.2387 13.6569 29.1441 13.5503C29.0495 13.4454 29.0022 13.3491 29.0022 13.2614C28.9651 13.0653 29.0563 12.9277 29.2724 12.8486C29.4886 12.7712 29.7082 12.7145 29.9345 12.6767C30.0916 12.6767 30.4902 12.6147 31.1303 12.4909C31.7687 12.3671 32.5118 12.2192 33.3597 12.0438C34.1872 11.8701 35.0486 11.6826 35.9403 11.4797C36.8321 11.2733 37.5887 11.0997 38.2103 10.9569Z" fill="#4792DC"/>
<path d="M42.9082 11.5136C43.0974 11.5515 43.2004 11.622 43.219 11.7269C43.2359 11.8335 43.2274 12.0433 43.1919 12.3598C43.1919 12.6074 43.1784 12.8413 43.1514 13.0614C43.1278 13.2815 43.1176 13.4982 43.1176 13.708C43.2527 13.9557 43.4622 14.3237 43.7459 14.8087C44.033 15.2902 44.3607 15.8233 44.7255 16.4046C45.0667 16.9824 45.4315 17.5912 45.8199 18.2275C46.2117 18.8604 46.5901 19.4502 46.9549 19.9954C47.3011 20.5423 47.6203 21.0169 47.9142 21.4193C48.2064 21.8235 48.4226 22.0969 48.5627 22.2379C48.6303 22.3119 48.6979 22.2104 48.7654 21.9353C48.8363 21.6601 48.9073 21.2869 48.9748 20.814C49.0289 20.3376 49.0711 19.7959 49.1032 19.1906C49.1387 18.5818 49.1471 17.985 49.1302 17.402C49.1167 17.0546 49.0998 16.6694 49.0829 16.2464C49.0644 15.8199 49.0373 15.4054 49.0019 15.0013C48.9698 14.5989 48.9225 14.2085 48.86 13.8319C48.8009 13.4518 48.7266 13.1199 48.6371 12.8344C48.0324 11.1284 48.2334 10.7071 49.2383 11.5687C49.3903 11.7114 49.5491 11.9745 49.7112 12.3598C49.8767 12.745 50.0304 13.2385 50.1706 13.8387C50.3091 14.4406 50.4223 15.1371 50.5084 15.9299C50.5928 16.7193 50.6266 17.5912 50.6097 18.5439C50.6097 19.1768 50.5759 19.7856 50.5084 20.3669C50.4408 20.9447 50.3547 21.4641 50.2517 21.9215C50.147 22.3807 50.0422 22.7642 49.9342 23.0703C49.8294 23.3781 49.7349 23.569 49.6504 23.6412C49.5457 23.729 49.4241 23.8304 49.2856 23.9439C49.1505 24.0591 49.0036 24.1417 48.8465 24.1916C48.6928 24.2466 48.529 24.2604 48.3533 24.2328C48.181 24.2053 48.0172 24.0953 47.8601 23.9026C47.774 23.8167 47.6271 23.6103 47.421 23.2835C47.2133 22.9585 46.9701 22.5578 46.6914 22.0797C46.3975 21.6223 46.0834 21.1132 45.7456 20.5526C45.4078 19.9885 45.0734 19.4244 44.7458 18.8604C44.4029 18.2963 44.0719 17.7511 43.7527 17.2232C43.4318 16.6918 43.1598 16.224 42.9352 15.8199C42.8981 16.1741 42.8677 16.5353 42.8406 16.9067C42.8136 17.2748 42.7832 17.66 42.7528 18.0624C42.6988 18.7331 42.6397 19.3901 42.5772 20.0367C42.5181 20.6799 42.4725 21.2646 42.4421 21.7908C42.388 22.3188 42.3475 22.7642 42.3205 23.1253C42.2968 23.4882 42.2765 23.7135 42.2596 23.7995C42.1735 24.1348 41.9996 24.4255 41.7395 24.6731C41.4777 24.9173 41.3037 25.0377 41.2193 25.0377C41.0977 25.0377 41.0267 24.8846 41.0098 24.5768C40.9963 24.2707 40.998 23.9577 41.0166 23.6412C41.0166 23.5501 41.0183 23.44 41.0234 23.3111C41.0318 23.1786 41.0369 23.0772 41.0369 23.0084C41.0369 22.8123 41.0453 22.4357 41.0639 21.8802C41.0808 21.3265 41.1078 20.6799 41.145 19.9404C41.1754 19.2215 41.2142 18.4545 41.2598 17.6428C41.3037 16.8311 41.3426 16.0744 41.3747 15.3727C41.4101 14.6848 41.449 14.0915 41.4895 13.5911C41.5334 13.0872 41.5655 12.7828 41.5841 12.6762C41.6516 12.5214 41.7411 12.3632 41.8543 12.2015C41.9658 12.0416 42.0924 11.9023 42.2326 11.7819C42.3542 11.6719 42.4758 11.5876 42.5974 11.5274C42.719 11.4689 42.8221 11.4638 42.9082 11.5136Z" fill="#4792DC"/>
<path d="M55.7775 11.1208C55.9126 11.1724 55.9971 11.2498 56.0342 11.3547C56.0697 11.4613 56.0697 11.6556 56.0342 11.9394C56.0156 11.9721 56.0072 11.9875 56.0072 11.9875V12.0976C56.2504 12.0426 56.5088 11.9944 56.7841 11.9532C57.0628 11.9084 57.3482 11.8672 57.6421 11.8293C57.7806 11.8121 57.9224 11.8001 58.0677 11.7949C58.2163 11.7863 58.3683 11.7812 58.5271 11.7812C59.0439 11.7812 59.5489 11.8396 60.0404 11.9532C60.5352 12.0632 60.9625 12.261 61.324 12.5447C61.6888 12.8251 61.9607 13.2034 62.1414 13.6798C62.3255 14.1579 62.3812 14.7563 62.3103 15.4752C62.2596 15.9705 62.062 16.5242 61.7158 17.133C61.3679 17.7384 60.9355 18.3575 60.4187 18.9903C59.9002 19.6421 59.3209 20.2819 58.6825 20.9096C58.0424 21.5338 57.4023 22.1099 56.7638 22.6362C56.1237 23.1831 55.509 23.6508 54.9195 24.0395C54.3284 24.4247 53.8183 24.6964 53.386 24.8512C53.0752 24.9441 52.854 24.9458 52.7239 24.8581C52.5972 24.7669 52.5348 24.65 52.5348 24.5073C52.5162 24.3886 52.5449 24.2631 52.6226 24.1289C52.6986 23.9965 52.7813 23.9122 52.8725 23.8744C52.957 23.8434 53.0769 23.7918 53.2306 23.7231C53.3877 23.6508 53.543 23.5614 53.6967 23.4548C53.7136 22.9973 53.7457 22.3799 53.7913 21.6043C53.8352 20.8305 53.8825 20.0015 53.9332 19.121C53.9872 18.2594 54.0379 17.3927 54.0886 16.5208C54.1426 15.6506 54.1933 14.8802 54.244 14.2095L54.0345 14.2851C53.9163 14.323 53.7879 14.3728 53.6495 14.4365C53.5093 14.4966 53.3877 14.5448 53.2846 14.5809C53.0414 14.6686 52.8725 14.691 52.778 14.6497C52.6834 14.605 52.6361 14.519 52.6361 14.3952C52.6175 14.2714 52.6378 14.1269 52.6969 13.9618C52.7594 13.7933 52.8253 13.6282 52.8928 13.4665C52.9097 13.4356 52.9198 13.4149 52.9198 13.4046C52.9198 13.396 52.9283 13.3737 52.9469 13.3358C52.9823 13.267 53.1242 13.1621 53.3725 13.0194C53.6241 12.8784 53.9568 12.7374 54.3723 12.5998C54.3892 12.5086 54.3993 12.4381 54.3993 12.3865C54.3993 12.3315 54.3993 12.3143 54.3993 12.3315C54.4703 12.1767 54.5649 12.0151 54.6831 11.85C54.8047 11.6814 54.9347 11.5335 55.0749 11.4097C55.2134 11.2859 55.3468 11.1999 55.4735 11.1483C55.6035 11.0933 55.7133 11.0916 55.8045 11.1414L55.7775 11.1208ZM60.7565 15.2619C60.7919 14.8217 60.7261 14.476 60.5606 14.2232C60.3984 13.967 60.1687 13.7675 59.8715 13.6247C59.5776 13.5009 59.2398 13.4235 58.8581 13.3909C58.4798 13.3547 58.1015 13.3461 57.7232 13.3633C57.1692 13.3823 56.5713 13.4786 55.9329 13.6523C55.8957 14.1802 55.8468 14.8251 55.7843 15.5852C55.7251 16.3419 55.6627 17.1244 55.5951 17.931C55.5225 18.7427 55.4566 19.5372 55.3992 20.3111C55.3401 21.0867 55.2843 21.7471 55.2303 22.2922C55.8197 21.8348 56.4261 21.3068 57.0476 20.7101C57.6691 20.1099 58.2467 19.4925 58.7838 18.8596C59.3192 18.2233 59.7668 17.5922 60.1282 16.9679C60.493 16.3454 60.7024 15.7761 60.7565 15.2619Z" fill="#4792DC"/>
<path d="M65.0102 23.5048C65.0271 23.2073 65.0575 22.8031 65.098 22.2941C65.142 21.7816 65.1892 21.2072 65.2399 20.5743C65.2754 19.9604 65.3176 19.3189 65.3683 18.6482C65.4223 17.9792 65.4764 17.3189 65.5304 16.6671C65.5794 16.0342 65.6284 15.4357 65.679 14.8717C65.7331 14.3076 65.777 13.8398 65.8142 13.4684C65.7466 13.4873 65.6892 13.501 65.6453 13.5096C65.5997 13.52 65.5524 13.5337 65.5034 13.5509L65.0845 13.6541C64.8768 13.7091 64.6876 13.7194 64.5171 13.6816C64.3448 13.6455 64.1995 13.5836 64.0779 13.4959C63.9377 13.4271 63.828 13.3445 63.7469 13.2482C63.6692 13.1519 63.6321 13.0677 63.6321 12.9937C63.6 12.7839 63.6929 12.648 63.909 12.5879C64.1252 12.5242 64.3515 12.4675 64.5914 12.4159C64.6268 12.4159 64.6589 12.4124 64.6859 12.4021C64.713 12.3935 64.7417 12.3884 64.7738 12.3884C64.9663 12.3523 65.2061 12.3093 65.4899 12.2577C65.7736 12.2026 66.0641 12.151 66.3614 12.0995C66.6535 12.0444 66.9322 11.9928 67.1991 11.9412C67.4693 11.8862 67.6804 11.8415 67.8341 11.8037C68.4911 11.6661 68.91 11.6248 69.0907 11.6798C69.2748 11.7314 69.3153 11.8243 69.2123 11.9619C69.1076 12.1235 68.9083 12.2921 68.611 12.4709C68.3171 12.6463 68.0165 12.7942 67.7058 12.918V12.8905C67.6872 12.9094 67.672 12.918 67.6585 12.918C67.6399 12.918 67.6213 12.9249 67.6044 12.9387H67.5504C67.5183 13.2603 67.4575 13.7951 67.368 14.5415C67.2818 15.2896 67.1873 16.1133 67.0842 17.011C67.0167 17.594 66.9457 18.1908 66.8748 18.7996C66.8072 19.4049 66.7464 19.9879 66.6924 20.5468C66.6248 21.1109 66.564 21.6371 66.51 22.1221C66.4593 22.6036 66.4103 23.0129 66.3614 23.3466C66.5319 23.3156 66.7464 23.2812 67.0032 23.2434C67.2633 23.2073 67.5402 23.1643 67.8341 23.1127C67.9726 23.0576 68.0908 23.068 68.1854 23.1402C68.28 23.209 68.3357 23.2967 68.3543 23.4016C68.3712 23.5254 68.329 23.663 68.2259 23.8143C68.1212 23.9622 67.9388 24.0878 67.6787 24.1927C67.471 24.2855 67.2362 24.3698 66.9761 24.4472C66.7194 24.5263 66.4627 24.5916 66.206 24.6467C65.9256 24.6983 65.6605 24.7464 65.4088 24.7911C65.1605 24.8324 64.9393 24.853 64.7467 24.853C64.5576 24.853 64.3752 24.8187 64.1995 24.7499C64.0273 24.6811 63.8837 24.5951 63.7672 24.4885C63.627 24.3973 63.5172 24.2941 63.4361 24.1789C63.3584 24.0654 63.3213 23.9725 63.3213 23.9037C63.3213 23.675 63.453 23.5512 63.7199 23.5323C63.9901 23.5151 64.2468 23.5048 64.49 23.5048H65.0102Z" fill="#4792DC"/>
<path d="M72.584 11.5136C72.7731 11.5515 72.8762 11.622 72.8947 11.7269C72.9116 11.8335 72.9032 12.0433 72.8677 12.3598C72.8677 12.6074 72.8542 12.8413 72.8272 13.0614C72.8035 13.2815 72.7934 13.4982 72.7934 13.708C72.9285 13.9557 73.1379 14.3237 73.4217 14.8087C73.7088 15.2902 74.0365 15.8233 74.4013 16.4046C74.7424 16.9824 75.1072 17.5912 75.4957 18.2275C75.8875 18.8604 76.2659 19.4502 76.6307 19.9954C76.9769 20.5423 77.2961 21.0169 77.59 21.4193C77.8822 21.8235 78.0983 22.0969 78.2385 22.2379C78.3061 22.3119 78.3736 22.2104 78.4412 21.9353C78.5121 21.6601 78.5831 21.2869 78.6506 20.814C78.7047 20.3376 78.7469 19.7959 78.779 19.1906C78.8144 18.5818 78.8229 17.985 78.806 17.402C78.7925 17.0546 78.7756 16.6694 78.7587 16.2464C78.7401 15.8199 78.7131 15.4054 78.6776 15.0013C78.6456 14.5989 78.5983 14.2085 78.5358 13.8319C78.4767 13.4518 78.4023 13.1199 78.3128 12.8344C77.7082 11.1284 77.9092 10.7071 78.9141 11.5687C79.0661 11.7114 79.2249 11.9745 79.387 12.3598C79.5525 12.745 79.7062 13.2385 79.8464 13.8387C79.9849 14.4406 80.098 15.1371 80.1842 15.9299C80.2686 16.7193 80.3024 17.5912 80.2855 18.5439C80.2855 19.1768 80.2517 19.7856 80.1842 20.3669C80.1166 20.9447 80.0305 21.4641 79.9275 21.9215C79.8227 22.3807 79.718 22.7642 79.6099 23.0703C79.5052 23.3781 79.4106 23.569 79.3262 23.6412C79.2215 23.729 79.0999 23.8304 78.9614 23.9439C78.8263 24.0591 78.6793 24.1417 78.5223 24.1916C78.3686 24.2466 78.2047 24.2604 78.0291 24.2328C77.8568 24.2053 77.693 24.0953 77.5359 23.9026C77.4498 23.8167 77.3029 23.6103 77.0968 23.2835C76.8891 22.9585 76.6459 22.5578 76.3672 22.0797C76.0733 21.6223 75.7592 21.1132 75.4214 20.5526C75.0836 19.9885 74.7492 19.4244 74.4215 18.8604C74.0787 18.2963 73.7477 17.7511 73.4284 17.2232C73.1075 16.6918 72.8356 16.224 72.611 15.8199C72.5738 16.1741 72.5434 16.5353 72.5164 16.9067C72.4894 17.2748 72.459 17.66 72.4286 18.0624C72.3746 18.7331 72.3154 19.3901 72.253 20.0367C72.1938 20.6799 72.1482 21.2646 72.1178 21.7908C72.0638 22.3188 72.0233 22.7642 71.9962 23.1253C71.9726 23.4882 71.9523 23.7135 71.9354 23.7995C71.8493 24.1348 71.6753 24.4255 71.4152 24.6731C71.1535 24.9173 70.9795 25.0377 70.895 25.0377C70.7734 25.0377 70.7025 24.8846 70.6856 24.5768C70.6721 24.2707 70.6738 23.9577 70.6924 23.6412C70.6924 23.5501 70.6941 23.44 70.6991 23.3111C70.7076 23.1786 70.7126 23.0772 70.7126 23.0084C70.7126 22.8123 70.7211 22.4357 70.7397 21.8802C70.7566 21.3265 70.7836 20.6799 70.8207 19.9404C70.8511 19.2215 70.89 18.4545 70.9356 17.6428C70.9795 16.8311 71.0183 16.0744 71.0504 15.3727C71.0859 14.6848 71.1247 14.0915 71.1653 13.5911C71.2092 13.0872 71.2413 12.7828 71.2599 12.6762C71.3274 12.5214 71.4169 12.3632 71.5301 12.2015C71.6416 12.0416 71.7682 11.9023 71.9084 11.7819C72.03 11.6719 72.1516 11.5876 72.2732 11.5274C72.3948 11.4689 72.4978 11.4638 72.584 11.5136Z" fill="#4792DC"/>
<path d="M88.3857 11.4378C88.764 11.4017 89.1305 11.4309 89.4869 11.5272C89.8415 11.6235 90.1658 11.7439 90.4597 11.8849C90.7333 12.0414 90.9748 12.2082 91.1826 12.3871C91.3886 12.5625 91.544 12.7018 91.6487 12.8067C91.7196 12.8806 91.7568 12.9976 91.7568 13.1575C91.7568 13.314 91.7298 13.4602 91.6757 13.5978C91.6082 13.7594 91.522 13.8764 91.419 13.9486C91.3143 14.0174 91.2028 14.0002 91.0812 13.8936C90.6978 13.5909 90.2807 13.3433 89.8314 13.1506C89.3855 12.958 88.9616 12.8806 88.5613 12.9168C88.0783 13.0234 87.5953 13.3433 87.1089 13.8798C86.6258 14.4164 86.1698 15.063 85.7374 15.8197C85.3051 16.5953 84.92 17.4225 84.5822 18.303C84.2444 19.1835 83.9894 20.0296 83.8188 20.8413C83.7462 21.1767 83.7327 21.4931 83.7783 21.7906C83.8222 22.0899 83.9033 22.353 84.0215 22.5817C84.1431 22.8121 84.3069 22.9927 84.5147 23.1251C84.7258 23.2593 84.969 23.3246 85.2443 23.3246C85.6226 23.3246 86.0364 23.1836 86.4873 22.8981C86.9737 22.6006 87.4568 22.2498 87.9398 21.8457C88.4262 21.4381 88.867 21.058 89.2639 20.7037C89.2994 20.4939 89.3281 20.3099 89.3518 20.1534C89.3788 19.9935 89.4193 19.8078 89.4734 19.5962C89.09 19.7201 88.6694 19.8404 88.21 19.9539C87.754 20.0692 87.4061 20.1448 87.1629 20.1809C86.9737 20.1947 86.7863 20.1672 86.6022 20.0984C86.4215 20.0296 86.2644 19.9522 86.1293 19.8645C85.9705 19.7734 85.8489 19.6753 85.7645 19.5687C85.6783 19.4638 85.6361 19.3864 85.6361 19.3348C85.6175 19.1061 85.7273 18.9668 85.9671 18.9152C86.2103 18.8602 86.435 18.8155 86.6427 18.7776C86.6782 18.7776 86.7052 18.7742 86.7238 18.7639C86.7407 18.7553 86.7592 18.7501 86.7778 18.7501C86.9974 18.7192 87.3014 18.6727 87.6898 18.6125C88.0817 18.5489 88.5022 18.4732 88.9532 18.3855C89.3855 18.2944 89.8263 18.1912 90.2773 18.076C90.7265 17.9625 91.1319 17.8352 91.4933 17.6976C91.875 17.5566 92.1182 17.5257 92.2229 17.6082C92.326 17.6873 92.3513 17.8043 92.2972 17.959C92.2297 18.1345 92.1081 18.3202 91.9324 18.5162C91.7602 18.7088 91.5896 18.8499 91.419 18.9359V18.9634C91.365 19.0012 91.3143 19.0184 91.2704 19.0184C91.2298 19.0184 91.1657 19.0356 91.0812 19.0666C90.941 19.6857 90.8059 20.2773 90.6759 20.8413C90.5492 21.4054 90.4259 21.9076 90.3043 22.3478C90.1827 22.8018 90.0763 23.1802 89.9868 23.4828C89.9007 23.7821 89.8415 23.9644 89.8111 24.0332C89.7571 24.1209 89.698 24.2189 89.6355 24.329C89.5764 24.4356 89.5139 24.5216 89.4463 24.5904C89.3602 24.6781 89.2656 24.7348 89.1626 24.7623C89.0579 24.7898 88.9464 24.7761 88.8248 24.7211C88.5985 24.6351 88.5816 24.1329 88.7708 23.2146C88.7876 23.1286 88.8012 23.0409 88.8113 22.9532C88.8197 22.8672 88.8332 22.7778 88.8518 22.6849C88.5225 22.9876 88.1712 23.2816 87.7979 23.5654C87.4281 23.8457 87.0278 24.0813 86.5954 24.2739C86.2475 24.4304 85.9148 24.5405 85.5956 24.6041C85.2747 24.6643 84.9943 24.6935 84.7511 24.6935C84.3002 24.6935 83.91 24.611 83.5824 24.4459C83.253 24.2774 82.9845 24.0521 82.7784 23.7718C82.5521 23.488 82.3883 23.163 82.2853 22.795C82.1806 22.4235 82.1299 22.0365 82.1299 21.6324C82.1299 21.4536 82.1383 21.2919 82.1569 21.144C82.1738 20.9927 82.2008 20.8465 82.238 20.7037C82.4086 19.8095 82.7058 18.8361 83.1297 17.7802C83.552 16.7208 84.0502 15.7234 84.6227 14.7878C85.1767 13.8764 85.778 13.1025 86.4265 12.4696C87.0751 11.8333 87.727 11.4894 88.3857 11.4378Z" fill="#4792DC"/>
<path d="M108.984 11.6164C109.776 11.5476 110.411 11.6232 110.889 11.8434C111.365 12.0635 111.715 12.2888 111.936 12.5175C112.026 12.6052 112.082 12.7514 112.105 12.9578C112.132 13.1607 112.12 13.3395 112.071 13.4943C112.017 13.6732 111.919 13.7936 111.781 13.852C111.646 13.9122 111.474 13.8555 111.268 13.6801H111.288C110.769 13.2398 110.062 13.1005 109.166 13.2604C108.643 13.3481 108.133 13.656 107.633 14.1822C107.133 14.7102 106.675 15.3516 106.262 16.1083C105.829 16.8839 105.459 17.7077 105.154 18.5779C104.851 19.4498 104.64 20.2667 104.519 21.0268C104.451 21.6596 104.588 22.1928 104.931 22.6227C105.277 23.0544 105.806 23.2693 106.518 23.2693C106.657 23.2693 106.826 23.2556 107.025 23.2281C107.223 23.2005 107.4 23.1713 107.559 23.1386C108.059 23.0148 108.525 22.8256 108.957 22.5677C109.389 22.3114 109.795 22.0621 110.173 21.8179C110.33 21.713 110.477 21.6115 110.612 21.5152C110.751 21.4154 110.891 21.3209 111.031 21.2332C111.17 21.1472 111.274 21.1351 111.342 21.1988C111.413 21.259 111.457 21.3501 111.47 21.4739C111.487 21.6167 111.47 21.7697 111.416 21.9348C111.365 22.0999 111.281 22.2375 111.159 22.3475C111.024 22.504 110.822 22.6915 110.551 22.9116C110.285 23.1317 109.987 23.3484 109.66 23.5582C109.312 23.7698 108.957 23.9693 108.592 24.1567C108.227 24.3407 107.873 24.4663 107.532 24.5351C107.251 24.5729 107 24.6004 106.775 24.6176C106.549 24.6365 106.324 24.6451 106.099 24.6451C105.446 24.6451 104.904 24.5351 104.471 24.3149C104.039 24.0948 103.701 23.799 103.458 23.4275C103.215 23.0561 103.056 22.6347 102.985 22.1618C102.917 21.6854 102.911 21.1919 102.965 20.6828C103.068 19.7662 103.323 18.7963 103.728 17.773C104.133 16.7515 104.622 15.7988 105.194 14.9183C105.748 14.0378 106.358 13.2914 107.025 12.6757C107.69 12.0618 108.344 11.7092 108.984 11.6164Z" fill="#4792DC"/>
<path d="M123.925 14.6017C123.925 15.0282 123.821 15.4323 123.614 15.8124C123.407 16.189 123.13 16.5347 122.784 16.8511C122.419 17.1675 122.002 17.4633 121.534 17.7385C121.069 18.0102 120.569 18.2596 120.034 18.4883C120.466 19.0162 120.899 19.5992 121.331 20.2355C121.763 20.8684 122.159 21.4651 122.52 22.0241C122.745 22.3267 122.956 22.6363 123.155 22.9527C123.358 23.2692 123.544 23.5426 123.716 23.7713C123.976 24.1428 124.108 24.4351 124.108 24.6449C124.108 24.7825 124.055 24.8651 123.952 24.8926C123.848 24.9201 123.717 24.9063 123.56 24.8513C123.402 24.8204 123.238 24.755 123.067 24.6587C122.895 24.559 122.74 24.4558 122.601 24.3492C122.496 24.2632 122.333 24.0654 122.108 23.7576C121.882 23.4514 121.615 23.0869 121.304 22.6638C121.096 22.399 120.872 22.1066 120.628 21.7902C120.385 21.4737 120.144 21.1573 119.906 20.8409C119.644 20.5245 119.387 20.2183 119.135 19.9191C118.887 19.6164 118.659 19.3516 118.453 19.1211C118.156 19.2278 117.867 19.312 117.588 19.3757C117.313 19.4359 117.038 19.4995 116.764 19.5683C116.727 19.5872 116.683 19.7196 116.629 19.9673C116.578 20.2149 116.538 20.4883 116.507 20.7859C116.47 21.1023 116.435 21.4084 116.399 21.7008C116.362 21.9897 116.339 22.1788 116.325 22.2648C116.252 22.7739 116.193 23.19 116.149 23.5099C116.109 23.8264 116.078 24.0293 116.062 24.1153C116.029 24.2718 115.969 24.4351 115.879 24.6037C115.793 24.7688 115.698 24.9046 115.595 25.0095C115.491 25.1334 115.383 25.2331 115.271 25.3053C115.158 25.3741 115.068 25.3913 115.001 25.3535C114.896 25.3225 114.827 25.2142 114.791 25.0302C114.754 24.8427 114.737 24.6346 114.737 24.4042C114.737 24.2116 114.741 24.0155 114.751 23.8126C114.759 23.6062 114.773 23.4343 114.791 23.2967C114.808 23.049 114.834 22.6397 114.866 22.0653C114.901 21.4927 114.962 20.803 115.048 19.9948C114.876 20.0636 114.687 20.1169 114.481 20.153C114.273 20.1857 114.075 20.2011 113.886 20.2011C113.295 20.2011 113.072 20.067 113.211 19.7953C113.349 19.5201 113.792 19.2776 114.535 19.0661C114.552 19.0661 114.585 19.0558 114.636 19.0317C114.69 19.0042 114.862 18.9474 115.156 18.8597C115.205 18.1168 115.264 17.3722 115.332 16.6241C115.403 15.8777 115.474 15.1967 115.541 14.581C115.595 13.9619 115.643 13.4426 115.683 13.0195C115.727 12.5982 115.759 12.3505 115.778 12.2766C115.845 12.1218 115.935 11.9653 116.048 11.8088C116.16 11.6489 116.286 11.5061 116.426 11.3823C116.548 11.2774 116.671 11.1949 116.798 11.1347C116.928 11.071 117.038 11.0659 117.129 11.1209C117.3 11.1725 117.406 11.2826 117.446 11.4511C117.49 11.6162 117.504 11.9292 117.487 12.3866C117.815 12.3505 118.205 12.323 118.656 12.3041C119.105 12.2869 119.575 12.2955 120.061 12.3316C120.524 12.3694 120.986 12.4262 121.446 12.5036C121.905 12.5827 122.324 12.7099 122.702 12.8888C123.067 13.0642 123.361 13.2929 123.587 13.5767C123.812 13.857 123.925 14.1992 123.925 14.6017ZM117.413 13.5973C117.345 14.1305 117.261 14.8218 117.163 15.6748C117.068 16.5278 116.953 17.4134 116.818 18.3301C117.421 18.1203 118.051 17.8829 118.71 17.6215C119.367 17.3567 119.973 17.0712 120.527 16.7685C121.062 16.471 121.507 16.1683 121.858 15.8605C122.213 15.5544 122.392 15.2397 122.392 14.9181C122.392 14.6395 122.24 14.4125 121.939 14.2371C121.637 14.0582 121.243 13.9172 120.757 13.8106C120.274 13.7246 119.738 13.6644 119.149 13.6317C118.563 13.5956 117.984 13.5836 117.413 13.5973Z" fill="#4792DC"/>
<path d="M128.511 14.1291C128.789 14.1291 128.933 14.2529 128.943 14.5006C128.951 14.7482 128.919 15.1025 128.848 15.5599C128.835 15.6115 128.828 15.6597 128.828 15.7044C128.828 15.7456 128.818 15.7938 128.801 15.8488L128.774 15.9039C128.737 16.1292 128.693 16.3974 128.639 16.7087C128.588 17.0165 128.521 17.4516 128.436 18.0157C128.936 17.7319 129.497 17.4929 130.118 17.3003C130.743 17.1077 131.341 16.9495 131.909 16.8256C132.48 16.7018 132.983 16.6193 133.415 16.578C133.848 16.5333 134.133 16.5195 134.273 16.5367C134.376 16.5556 134.493 16.5918 134.625 16.6468C134.755 16.6984 134.863 16.7569 134.949 16.8256C135.016 16.9134 135.059 17.0028 135.077 17.0939C135.094 17.1816 135.043 17.259 134.922 17.3278C134.733 17.4155 134.597 17.4723 134.516 17.4998C134.439 17.5273 134.391 17.5411 134.375 17.5411C134.342 17.5548 134.317 17.5617 134.3 17.5617C134.282 17.5617 134.246 17.572 134.192 17.5892C133.849 17.6821 133.417 17.799 132.895 17.94C132.377 18.0776 131.841 18.2341 131.287 18.4078C130.72 18.6056 130.167 18.824 129.632 19.0613C129.095 19.2952 128.627 19.5549 128.227 19.8386C128.208 20.0312 128.195 20.217 128.186 20.3958C128.181 20.5712 128.18 20.7363 128.18 20.8911C128.18 21.3314 128.208 21.7235 128.267 22.0674C128.325 22.4114 128.433 22.671 128.592 22.8447C128.762 23.0236 128.965 23.1509 129.2 23.2231C129.433 23.2919 129.688 23.3263 129.963 23.3263C130.071 23.3263 130.201 23.3263 130.355 23.3263C130.512 23.3263 130.659 23.3091 130.794 23.2712C131.105 23.2024 131.446 23.1027 131.821 22.9686C132.194 22.8361 132.561 22.69 132.922 22.5283C133.268 22.3907 133.588 22.2463 133.881 22.0949C134.179 21.9436 134.422 21.8163 134.611 21.7097C134.679 21.6788 134.834 21.6581 135.077 21.6478C135.32 21.6392 135.518 21.6684 135.672 21.7372C135.81 21.8112 135.841 21.935 135.759 22.1087C135.682 22.2841 135.361 22.5386 134.793 22.8723H134.82C134.523 23.0511 134.153 23.2506 133.712 23.4707C133.27 23.6909 132.8 23.8972 132.301 24.0898C131.782 24.2824 131.26 24.4458 130.733 24.5782C130.206 24.7124 129.727 24.7777 129.294 24.7777C128.808 24.7777 128.426 24.6986 128.153 24.537C127.666 24.2584 127.318 23.8972 127.112 23.457C126.904 23.0167 126.768 22.5145 126.7 21.9505C126.627 21.3864 126.643 20.5386 126.747 19.4053C126.85 18.2685 126.991 17.0028 127.166 15.6081C127.215 15.2916 127.301 15.0371 127.423 14.8445C127.545 14.6519 127.675 14.504 127.815 14.3974C127.936 14.2925 128.06 14.222 128.186 14.1841C128.316 14.148 128.424 14.1291 128.511 14.1291ZM134.557 10.9579C135.165 10.8203 135.55 10.7859 135.712 10.8547C135.878 10.9235 135.908 11.0387 135.8 11.1987C135.695 11.3603 135.51 11.5357 135.239 11.7283C134.972 11.9209 134.712 12.0792 134.456 12.203C134.315 12.2546 134.059 12.3371 133.685 12.4506C133.316 12.5658 132.882 12.6948 132.382 12.8358C131.858 12.9786 131.311 13.1299 130.74 13.2899C130.172 13.4464 129.639 13.5857 129.139 13.7095C128.615 13.8522 128.153 13.9674 127.747 14.0534C127.342 14.1411 127.06 14.1944 126.903 14.2116C126.714 14.2306 126.526 14.2048 126.342 14.136C126.161 14.0637 126.004 13.9743 125.869 13.8677C125.71 13.7628 125.585 13.6579 125.491 13.5513C125.396 13.4464 125.349 13.3501 125.349 13.2623C125.312 13.0663 125.403 12.9287 125.619 12.8496C125.835 12.7722 126.055 12.7155 126.281 12.6776C126.438 12.6776 126.837 12.6157 127.477 12.4919C128.115 12.3681 128.858 12.2202 129.706 12.0448C130.534 11.8711 131.395 11.6836 132.287 11.4807C133.179 11.2743 133.935 11.1006 134.557 10.9579Z" fill="#4792DC"/>
<path d="M140.582 11.1208C140.717 11.1724 140.802 11.2498 140.839 11.3547C140.874 11.4613 140.874 11.6556 140.839 11.9394C140.82 11.9721 140.812 11.9875 140.812 11.9875V12.0976C141.055 12.0426 141.314 11.9944 141.589 11.9532C141.867 11.9084 142.153 11.8672 142.447 11.8293C142.585 11.8121 142.727 11.8001 142.872 11.7949C143.021 11.7863 143.173 11.7812 143.332 11.7812C143.849 11.7812 144.354 11.8396 144.845 11.9532C145.34 12.0632 145.767 12.261 146.129 12.5447C146.493 12.8251 146.765 13.2034 146.946 13.6798C147.13 14.1579 147.186 14.7563 147.115 15.4752C147.064 15.9705 146.867 16.5242 146.52 17.133C146.173 17.7384 145.74 18.3575 145.223 18.9903C144.705 19.6421 144.126 20.2819 143.487 20.9096C142.847 21.5338 142.207 22.1099 141.569 22.6362C140.928 23.1831 140.314 23.6508 139.724 24.0395C139.133 24.4247 138.623 24.6964 138.191 24.8512C137.88 24.9441 137.659 24.9458 137.529 24.8581C137.402 24.7669 137.339 24.65 137.339 24.5073C137.321 24.3886 137.35 24.2631 137.427 24.1289C137.503 23.9965 137.586 23.9122 137.677 23.8744C137.762 23.8434 137.882 23.7918 138.035 23.7231C138.192 23.6508 138.348 23.5614 138.501 23.4548C138.518 22.9973 138.55 22.3799 138.596 21.6043C138.64 20.8305 138.687 20.0015 138.738 19.121C138.792 18.2594 138.843 17.3927 138.893 16.5208C138.947 15.6506 138.998 14.8802 139.049 14.2095L138.839 14.2851C138.721 14.323 138.593 14.3728 138.454 14.4365C138.314 14.4966 138.192 14.5448 138.089 14.5809C137.846 14.6686 137.677 14.691 137.583 14.6497C137.488 14.605 137.441 14.519 137.441 14.3952C137.422 14.2714 137.442 14.1269 137.502 13.9618C137.564 13.7933 137.63 13.6282 137.697 13.4665C137.714 13.4356 137.725 13.4149 137.725 13.4046C137.725 13.396 137.733 13.3737 137.752 13.3358C137.787 13.267 137.929 13.1621 138.177 13.0194C138.429 12.8784 138.762 12.7374 139.177 12.5998C139.194 12.5086 139.204 12.4381 139.204 12.3865C139.204 12.3315 139.204 12.3143 139.204 12.3315C139.275 12.1767 139.37 12.0151 139.488 11.85C139.609 11.6814 139.739 11.5335 139.88 11.4097C140.018 11.2859 140.152 11.1999 140.278 11.1483C140.408 11.0933 140.518 11.0916 140.609 11.1414L140.582 11.1208ZM145.561 15.2619C145.597 14.8217 145.531 14.476 145.365 14.2232C145.203 13.967 144.973 13.7675 144.676 13.6247C144.382 13.5009 144.045 13.4235 143.663 13.3909C143.284 13.3547 142.906 13.3461 142.528 13.3633C141.974 13.3823 141.376 13.4786 140.738 13.6523C140.7 14.1802 140.651 14.8251 140.589 15.5852C140.53 16.3419 140.467 17.1244 140.4 17.931C140.327 18.7427 140.261 19.5372 140.204 20.3111C140.145 21.0867 140.089 21.7471 140.035 22.2922C140.624 21.8348 141.231 21.3068 141.852 20.7101C142.474 20.1099 143.051 19.4925 143.588 18.8596C144.124 18.2233 144.571 17.5922 144.933 16.9679C145.298 16.3454 145.507 15.7761 145.561 15.2619Z" fill="#4792DC"/>
<path d="M149.816 23.5048C149.833 23.2073 149.863 22.8031 149.904 22.2941C149.948 21.7816 149.995 21.2072 150.046 20.5743C150.081 19.9604 150.123 19.3189 150.174 18.6482C150.228 17.9792 150.282 17.3189 150.336 16.6671C150.385 16.0342 150.434 15.4357 150.485 14.8717C150.539 14.3076 150.583 13.8398 150.62 13.4684C150.552 13.4873 150.495 13.501 150.451 13.5096C150.405 13.52 150.358 13.5337 150.309 13.5509L149.89 13.6541C149.682 13.7091 149.493 13.7194 149.323 13.6816C149.15 13.6455 149.005 13.5836 148.884 13.4959C148.743 13.4271 148.634 13.3445 148.553 13.2482C148.475 13.1519 148.438 13.0677 148.438 12.9937C148.406 12.7839 148.499 12.648 148.715 12.5879C148.931 12.5242 149.157 12.4675 149.397 12.4159C149.432 12.4159 149.465 12.4124 149.492 12.4021C149.519 12.3935 149.547 12.3884 149.579 12.3884C149.772 12.3523 150.012 12.3093 150.296 12.2577C150.579 12.2026 150.87 12.151 151.167 12.0995C151.459 12.0444 151.738 11.9928 152.005 11.9412C152.275 11.8862 152.486 11.8415 152.64 11.8037C153.297 11.6661 153.716 11.6248 153.896 11.6798C154.08 11.7314 154.121 11.8243 154.018 11.9619C153.913 12.1235 153.714 12.2921 153.417 12.4709C153.123 12.6463 152.822 12.7942 152.511 12.918V12.8905C152.493 12.9094 152.478 12.918 152.464 12.918C152.446 12.918 152.427 12.9249 152.41 12.9387H152.356C152.324 13.2603 152.263 13.7951 152.174 14.5415C152.087 15.2896 151.993 16.1133 151.89 17.011C151.822 17.594 151.751 18.1908 151.68 18.7996C151.613 19.4049 151.552 19.9879 151.498 20.5468C151.431 21.1109 151.37 21.6371 151.316 22.1221C151.265 22.6036 151.216 23.0129 151.167 23.3466C151.338 23.3156 151.552 23.2812 151.809 23.2434C152.069 23.2073 152.346 23.1643 152.64 23.1127C152.778 23.0576 152.896 23.068 152.991 23.1402C153.086 23.209 153.141 23.2967 153.16 23.4016C153.177 23.5254 153.135 23.663 153.032 23.8143C152.927 23.9622 152.744 24.0878 152.484 24.1927C152.277 24.2855 152.042 24.3698 151.782 24.4472C151.525 24.5263 151.268 24.5916 151.012 24.6467C150.731 24.6983 150.466 24.7464 150.214 24.7911C149.966 24.8324 149.745 24.853 149.552 24.853C149.363 24.853 149.181 24.8187 149.005 24.7499C148.833 24.6811 148.689 24.5951 148.573 24.4885C148.433 24.3973 148.323 24.2941 148.242 24.1789C148.164 24.0654 148.127 23.9725 148.127 23.9037C148.127 23.675 148.259 23.5512 148.526 23.5323C148.796 23.5151 149.052 23.5048 149.296 23.5048H149.816Z" fill="#4792DC"/>
<path d="M165.949 11.8593C166.087 11.8971 166.192 11.9143 166.259 11.9143C166.448 11.947 166.624 11.9865 166.786 12.0312C166.952 12.0777 167.019 12.1963 166.989 12.3889C166.97 12.6194 166.813 12.7656 166.516 12.8292C166.222 12.8894 165.851 12.9358 165.401 12.9668C164.797 13.0218 164.233 13.0734 163.706 13.1181C163.179 13.1594 162.655 13.2247 162.138 13.3107C162.101 13.4535 162.074 13.6203 162.057 13.8129C161.971 14.2531 161.871 14.8 161.76 15.4501C161.647 16.1019 161.53 16.7898 161.409 17.5138C161.269 18.2533 161.133 18.9962 161.003 19.7425C160.877 20.4906 160.753 21.1734 160.632 21.7925C160.51 22.4081 160.409 22.9275 160.328 23.354C160.25 23.7771 160.196 24.0316 160.166 24.1176C160.044 24.4529 159.843 24.7264 159.564 24.9362C159.289 25.1477 159.108 25.244 159.024 25.2251C158.951 25.2079 158.902 25.1253 158.875 24.9774C158.852 24.8261 158.842 24.6455 158.842 24.434C158.842 24.2242 158.852 24.0041 158.875 23.7736C158.902 23.5449 158.933 23.3437 158.97 23.1683C158.987 23.0083 159.021 22.7125 159.071 22.2809C159.125 21.8509 159.195 21.3436 159.281 20.7606C159.352 20.1794 159.436 19.5499 159.531 18.8758C159.625 18.1982 159.715 17.5327 159.801 16.8809C159.885 16.2308 159.971 15.6135 160.058 15.0305C160.147 14.4492 160.226 13.9642 160.294 13.579C160.032 13.6117 159.797 13.6512 159.591 13.6959C159.384 13.7424 159.167 13.7819 158.943 13.8129C158.338 13.9006 157.845 13.9763 157.463 14.0399C157.085 14.1001 156.825 14.1138 156.686 14.0812C155.997 13.99 155.513 13.7699 155.234 13.4208C155.129 13.297 155.126 13.1869 155.22 13.0906C155.315 12.9908 155.465 12.9049 155.673 12.8361C155.879 12.7673 156.109 12.7157 156.362 12.6779C156.614 12.6417 156.835 12.6073 157.024 12.5747C157.06 12.5575 157.193 12.5386 157.423 12.5196C157.656 12.5024 157.896 12.4766 158.139 12.444C158.467 12.4079 158.848 12.3717 159.281 12.3339C159.713 12.2978 160.162 12.2548 160.632 12.2032C160.802 11.9384 161.034 11.7217 161.328 11.5566C161.625 11.388 161.843 11.3743 161.983 11.5153C162.067 11.603 162.126 11.6701 162.159 11.7148C162.194 11.7612 162.221 11.8627 162.24 12.0175C163.037 11.9487 163.766 11.8971 164.429 11.8593C165.094 11.8231 165.592 11.8231 165.922 11.8593H165.949Z" fill="#4792DC"/>
<mask id="mask0_316_4079" style="mask-type:luminance" maskUnits="userSpaceOnUse" x="5" y="3" width="19" height="27">
<path d="M5.10352 3.2998H23.9355V29.6558H5.10352V3.2998Z" fill="white"/>
</mask>
<g mask="url(#mask0_316_4079)">
<path d="M8.75152 23.2291L8.67211 22.6633C8.24895 20.2196 8.3208 18.1014 8.8873 16.3091C9.3297 14.723 10.8377 12.2449 13.4114 8.8748L13.8428 10.2522C14.4712 8.75827 15.0872 7.63661 15.6915 6.88655C16.4333 5.89827 17.3796 5.06158 18.5305 4.37683C19.6522 3.69242 21.4273 3.3332 23.8559 3.29883C23.4867 5.82092 23.0044 7.65208 22.4094 8.79127C22.0117 9.61867 21.143 10.3911 19.8038 11.1085C19.7457 11.1745 19.8962 11.2178 20.2544 11.2388L22.122 11.2013C20.1915 14.4229 18.9241 16.3957 18.3205 17.1196C17.2552 18.4606 16.5155 19.2354 16.1005 19.4444C15.9538 19.5819 15.5378 19.8078 14.8531 20.1223C13.5118 20.5733 12.7112 20.873 12.4503 21.0212C11.9199 21.2749 11.3812 21.6767 10.835 22.2271C10.021 22.9551 8.62433 24.8929 6.64536 28.0406C5.7028 29.1444 5.19577 29.6655 5.12461 29.604C5.10673 29.508 5.24217 29.2138 5.53127 28.7212L7.30295 25.8633L15.2367 13.7272L8.75152 23.2291Z" fill="#4792DC"/>
</g>
<path d="M7.52637 29.2294C8.17365 28.9073 9.31077 28.1576 10.3898 27.4815C11.4688 26.8053 12.496 26.2065 13.4746 25.6871C14.4533 25.1673 15.3927 24.7418 15.9245 24.5359C16.4566 24.3303 16.6179 24.2822 16.7808 24.2392C16.9437 24.1963 17.1081 24.1584 17.2741 24.1254C17.4398 24.0924 17.6072 24.0643 17.723 24.0478C17.8389 24.0313 17.8836 24.0282 17.9152 24.0302C17.9465 24.0319 17.9647 24.0361 17.9716 24.0388C17.9788 24.0416 17.9798 24.0426 17.9623 23.9986C17.9447 23.9549 17.9423 23.925 17.8877 24.0302C17.833 24.1354 17.7055 24.3183 17.5071 24.5603C17.3091 24.8019 17.0427 25.0983 16.8513 25.3258C16.6598 25.5534 16.6278 25.64 16.633 25.7638C16.6385 25.8878 16.7186 26.0113 16.8183 26.0656C16.9176 26.1202 17.0029 26.1333 17.0788 26.1323C17.1551 26.1312 17.2394 26.1223 17.3377 26.1054C17.4363 26.0889 17.5522 26.0656 17.6869 26.0339C17.8213 26.0023 17.9757 25.9631 18.416 25.8363C18.8564 25.7091 19.5116 25.5128 20.088 25.3365C20.6648 25.1601 21.1629 25.0034 21.582 24.8628C22.0006 24.7225 22.3396 24.5936 22.5586 24.5232C22.7779 24.4527 22.7779 24.4527 22.629 24.4878C22.629 24.4878 22.3224 24.5221 21.9367 24.5747C21.5507 24.627 21.0883 24.7095 20.5493 24.8191C20.0103 24.9284 19.394 25.0622 18.701 25.2203C18.008 25.3788 17.8478 25.4118 17.7048 25.4396C17.5618 25.4674 17.4405 25.4884 17.3425 25.5032C17.2445 25.518 17.171 25.5262 17.1252 25.5283C17.0795 25.5303 17.0586 25.5279 17.0778 25.5345C17.0971 25.5407 17.1555 25.5833 17.1906 25.6675C17.226 25.7514 17.2198 25.8033 17.2043 25.8287C17.1885 25.8538 17.5068 25.5252 17.7626 25.233C18.0183 24.9412 18.2111 24.6947 18.3442 24.4867C18.4772 24.2784 18.5521 24.0849 18.5164 23.8724C18.4803 23.6603 18.393 23.5662 18.3122 23.5149C18.2311 23.4634 18.1427 23.4311 18.0516 23.4153C17.9609 23.3998 17.8688 23.3977 17.7787 23.4067C17.689 23.4153 17.5099 23.4414 17.3301 23.4733C17.1507 23.5053 16.9723 23.5424 16.7959 23.5851C16.6192 23.628 16.4443 23.6762 16.2638 23.7322C16.0833 23.7886 15.1456 24.1615 14.1686 24.6301C13.1917 25.0986 12.1797 25.661 11.1457 26.3378C10.1121 27.0147 9.05605 27.8005 8.56587 28.2886C7.51262 29.2116 8.08909 28.7946 7.52637 29.2294Z" fill="#4792DC"/>
<path d="M23.5557 24.6448C23.5629 24.6438 23.6509 24.6369 23.8434 24.6232C24.0359 24.6094 24.3312 24.5812 24.7282 24.5355C25.1256 24.4894 25.625 24.4252 25.9836 24.3413C26.3424 24.2574 26.5078 24.2189 26.6804 24.1794C26.8529 24.1402 27.0324 24.0976 27.219 24.0512C27.406 24.0047 27.5995 23.9515 27.7498 23.9233C27.9003 23.8951 27.9003 23.8951 27.7993 23.9068C27.7993 23.9068 27.5944 23.9092 27.396 23.9071C27.1974 23.9047 27.0066 23.9116 26.8234 23.9226C26.6401 23.9336 26.4645 23.9484 26.2957 23.9662C26.1273 23.9841 25.5584 24.0563 25.1019 24.1667C24.6454 24.277 24.2913 24.3708 24.0397 24.4478C23.788 24.5245 23.6382 24.5805 23.5959 24.6005C23.5447 24.6252 23.5643 24.6397 23.5557 24.6448Z" fill="#4792DC"/>
<path d="M174.409 11.0031C175.028 11.0401 175.508 11.1645 175.854 11.3796C176.199 11.5948 176.226 11.8671 175.935 12.1932C175.814 12.3327 175.675 12.4117 175.518 12.4285C175.365 12.4419 175.15 12.4335 174.873 12.4016C174.787 12.3848 174.701 12.3713 174.617 12.3612C174.532 12.3528 174.438 12.3478 174.335 12.3478C173.663 12.3125 172.99 12.3394 172.318 12.4285C171.646 12.5142 171.042 12.6503 170.51 12.8386C169.975 13.0268 169.536 13.2739 169.192 13.5781C168.851 13.879 168.671 14.2353 168.654 14.6471C168.635 15.0606 168.777 15.4169 169.077 15.7161C169.377 16.017 169.76 16.2792 170.227 16.5027C170.693 16.728 171.204 16.9229 171.76 17.0877C172.32 17.249 172.842 17.3902 173.327 17.5112C173.636 17.5969 173.922 17.6759 174.187 17.7465C174.456 17.8138 174.659 17.8726 174.799 17.9213H174.772C175.219 18.1146 175.589 18.3785 175.881 18.7147C176.172 19.0475 176.318 19.3853 176.318 19.7299C176.318 20.335 176.159 20.8577 175.841 21.2964C175.522 21.7317 175.123 22.1065 174.644 22.4192C174.16 22.7284 173.619 22.9822 173.024 23.1789C172.432 23.3772 171.869 23.5352 171.336 23.6562C170.802 23.7773 170.325 23.8613 169.904 23.905C169.483 23.9453 169.193 23.9756 169.037 23.9924C168.763 24.0109 168.509 23.9958 168.277 23.9453C168.044 23.8916 167.867 23.821 167.746 23.7302C167.612 23.663 167.551 23.5823 167.565 23.4882C167.582 23.394 167.703 23.3117 167.928 23.2394C168.066 23.2092 168.22 23.1722 168.392 23.1318C168.567 23.0881 168.772 23.0377 169.01 22.9839C169.53 22.8629 170.113 22.7217 170.758 22.5604C171.404 22.3956 172.009 22.1906 172.574 21.9485C173.142 21.73 173.624 21.4611 174.019 21.1418C174.417 20.819 174.617 20.4425 174.617 20.0123C174.617 19.824 174.538 19.6542 174.382 19.5013C174.229 19.345 174.022 19.2055 173.764 19.0845C173.503 18.9634 173.206 18.8559 172.869 18.7617C172.537 18.6676 172.19 18.5701 171.827 18.4659C171.276 18.3146 170.711 18.1398 170.133 17.9415C169.558 17.7398 169.039 17.4944 168.573 17.202C168.111 16.9112 167.733 16.5498 167.437 16.1195C167.145 15.6892 167 15.1564 167 14.5194C167 13.879 167.215 13.3327 167.645 12.8789C168.076 12.4217 168.642 12.0486 169.346 11.7561C170.036 11.4788 170.826 11.2788 171.713 11.1578C172.6 11.0368 173.498 10.9863 174.409 11.0031Z" fill="#4792DC"/>
</svg>
