<svg width="500" height="500" viewBox="0 0 500 500" fill="none" xmlns="http://www.w3.org/2000/svg">
<mask id="mask0_257_3695" style="mask-type:luminance" maskUnits="userSpaceOnUse" x="163" y="50" width="144" height="200">
<path d="M163.625 50H306.667V249.333H163.625V50Z" fill="white"/>
</mask>
<g mask="url(#mask0_257_3695)">
<path d="M191.302 200.984L190.698 196.692C187.495 178.182 188.037 162.135 192.333 148.557C195.682 136.541 207.109 117.765 226.604 92.2337L229.87 102.671C234.63 91.3535 239.302 82.8535 243.875 77.1764C249.495 69.6868 256.667 63.3483 265.386 58.1608C273.88 52.9733 287.328 50.2546 305.729 49.9941C302.932 69.1035 299.281 82.9733 294.771 91.6035C291.755 97.8744 285.177 103.723 275.031 109.156C274.594 109.656 275.729 109.989 278.448 110.145L292.594 109.864C277.969 134.265 268.37 149.213 263.792 154.697C255.724 164.854 250.12 170.729 246.974 172.312C245.865 173.348 242.714 175.062 237.526 177.442C227.365 180.859 221.297 183.13 219.323 184.255C215.302 186.176 211.224 189.218 207.089 193.39C200.917 198.906 190.339 213.588 175.349 237.432C168.208 245.796 164.365 249.739 163.828 249.275C163.693 248.546 164.719 246.322 166.906 242.588L180.328 220.937L240.432 128.994L191.302 200.984Z" fill="#4792DC"/>
</g>
<path d="M182.016 246.433C186.922 243.995 195.531 238.313 203.708 233.193C211.885 228.068 219.661 223.537 227.078 219.599C234.49 215.662 241.609 212.438 245.641 210.88C249.667 209.323 250.891 208.959 252.125 208.63C253.359 208.308 254.604 208.016 255.859 207.766C257.12 207.516 258.385 207.308 259.26 207.183C260.141 207.052 260.479 207.031 260.719 207.047C260.958 207.063 261.094 207.089 261.146 207.115C261.198 207.136 261.208 207.141 261.073 206.808C260.943 206.474 260.922 206.25 260.51 207.047C260.099 207.844 259.13 209.229 257.63 211.063C256.13 212.896 254.109 215.141 252.661 216.865C251.208 218.589 250.964 219.24 251.005 220.183C251.047 221.12 251.656 222.052 252.406 222.469C253.161 222.88 253.807 222.979 254.385 222.974C254.958 222.964 255.599 222.896 256.344 222.771C257.089 222.641 257.969 222.464 258.99 222.224C260.01 221.985 261.177 221.693 264.51 220.729C267.849 219.766 272.812 218.281 277.182 216.943C281.547 215.61 285.323 214.422 288.495 213.354C291.672 212.292 294.234 211.318 295.896 210.781C297.557 210.25 297.557 210.25 296.427 210.516C296.427 210.516 294.109 210.776 291.182 211.172C288.26 211.568 284.76 212.193 280.677 213.021C276.594 213.854 271.922 214.865 266.672 216.063C261.422 217.261 260.208 217.516 259.125 217.724C258.042 217.938 257.125 218.094 256.38 218.203C255.635 218.318 255.078 218.38 254.734 218.396C254.391 218.412 254.229 218.396 254.375 218.443C254.521 218.49 254.964 218.813 255.229 219.448C255.495 220.089 255.448 220.479 255.333 220.672C255.214 220.865 257.625 218.375 259.562 216.162C261.5 213.948 262.964 212.084 263.969 210.505C264.979 208.927 265.547 207.464 265.271 205.854C265 204.245 264.339 203.531 263.724 203.141C263.115 202.755 262.443 202.511 261.755 202.391C261.068 202.271 260.37 202.255 259.688 202.323C259.005 202.386 257.646 202.584 256.286 202.828C254.927 203.068 253.578 203.354 252.24 203.677C250.901 204 249.578 204.365 248.208 204.792C246.839 205.214 239.74 208.042 232.339 211.589C224.938 215.141 217.266 219.401 209.438 224.526C201.604 229.656 193.604 235.61 189.891 239.308C181.911 246.302 186.281 243.141 182.016 246.433Z" fill="#4792DC"/>
<mask id="mask1_257_3695" style="mask-type:luminance" maskUnits="userSpaceOnUse" x="302" y="205" width="35" height="7">
<path d="M302.667 205.334H336.625V212.001H302.667V205.334Z" fill="white"/>
</mask>
<g mask="url(#mask1_257_3695)">
<path d="M303.448 211.703C303.505 211.698 304.172 211.646 305.63 211.541C307.089 211.437 309.323 211.224 312.333 210.875C315.344 210.531 319.125 210.041 321.844 209.406C324.563 208.771 325.813 208.479 327.12 208.182C328.427 207.88 329.792 207.557 331.203 207.208C332.62 206.854 334.083 206.453 335.224 206.239C336.365 206.026 336.365 206.026 335.599 206.114C335.599 206.114 334.047 206.135 332.542 206.114C331.037 206.099 329.594 206.151 328.208 206.234C326.818 206.317 325.484 206.432 324.208 206.562C322.932 206.698 318.62 207.245 315.162 208.083C311.703 208.922 309.026 209.63 307.12 210.213C305.214 210.797 304.078 211.219 303.755 211.37C303.365 211.557 303.516 211.666 303.448 211.703Z" fill="#4792DC"/>
</g>
<path d="M132.135 294.479C133.271 294.479 133.854 294.979 133.885 295.979C133.927 296.969 133.802 298.391 133.51 300.25C133.437 300.458 133.406 300.656 133.406 300.833C133.406 301 133.37 301.198 133.302 301.417L133.198 301.625C133.057 302.557 132.875 303.646 132.656 304.896C132.448 306.135 132.167 307.891 131.823 310.167C133.875 309.031 136.182 308.073 138.739 307.292C141.307 306.5 143.766 305.854 146.114 305.354C148.458 304.854 150.521 304.521 152.302 304.354C154.078 304.177 155.25 304.12 155.823 304.188C156.239 304.26 156.708 304.406 157.239 304.625C157.781 304.833 158.229 305.078 158.594 305.354C158.87 305.719 159.042 306.078 159.114 306.438C159.182 306.786 158.974 307.104 158.489 307.396C157.698 307.745 157.141 307.974 156.823 308.083C156.5 308.198 156.307 308.25 156.239 308.25C156.099 308.323 155.995 308.354 155.927 308.354C155.854 308.354 155.708 308.391 155.489 308.458C154.073 308.807 152.292 309.266 150.156 309.833C148.031 310.406 145.828 311.042 143.552 311.75C141.203 312.542 138.927 313.417 136.719 314.375C134.51 315.333 132.594 316.385 130.969 317.521C130.885 318.302 130.823 319.052 130.781 319.771C130.75 320.479 130.739 321.156 130.739 321.792C130.739 323.573 130.864 325.156 131.114 326.542C131.364 327.917 131.807 328.969 132.448 329.688C133.156 330.396 133.989 330.896 134.948 331.188C135.917 331.469 136.974 331.604 138.114 331.604C138.531 331.604 139.057 331.604 139.698 331.604C140.349 331.604 140.953 331.536 141.51 331.396C142.802 331.104 144.208 330.698 145.739 330.167C147.266 329.625 148.771 329.036 150.26 328.396C151.687 327.828 153.01 327.245 154.219 326.646C155.427 326.036 156.417 325.516 157.198 325.083C157.489 324.948 158.125 324.865 159.114 324.833C160.114 324.792 160.932 324.917 161.573 325.208C162.141 325.49 162.265 325.979 161.948 326.688C161.625 327.396 160.292 328.432 157.948 329.792H158.052C156.844 330.5 155.328 331.302 153.51 332.188C151.703 333.078 149.766 333.911 147.698 334.688C145.573 335.479 143.427 336.141 141.26 336.667C139.094 337.198 137.12 337.458 135.344 337.458C133.344 337.458 131.771 337.141 130.635 336.5C128.646 335.365 127.224 333.906 126.364 332.125C125.515 330.349 124.953 328.328 124.677 326.063C124.385 323.786 124.448 320.354 124.864 315.771C125.292 311.177 125.87 306.073 126.594 300.458C126.802 299.182 127.156 298.156 127.656 297.375C128.156 296.583 128.687 295.974 129.26 295.542C129.76 295.125 130.271 294.849 130.802 294.708C131.328 294.557 131.771 294.479 132.135 294.479ZM156.989 281.688C159.474 281.12 161.052 280.979 161.719 281.271C162.396 281.552 162.531 282.01 162.114 282.646C161.682 283.286 160.911 283.995 159.802 284.771C158.703 285.552 157.62 286.188 156.552 286.688C155.979 286.911 154.932 287.25 153.406 287.708C151.875 288.167 150.083 288.682 148.031 289.25C145.891 289.823 143.646 290.427 141.302 291.063C138.953 291.703 136.75 292.271 134.698 292.771C132.557 293.344 130.656 293.807 128.989 294.167C127.323 294.516 126.161 294.724 125.51 294.792C124.729 294.875 123.969 294.781 123.219 294.5C122.479 294.208 121.828 293.849 121.26 293.417C120.62 292.99 120.099 292.563 119.698 292.146C119.307 291.719 119.114 291.323 119.114 290.958C118.974 290.182 119.349 289.635 120.239 289.313C121.125 288.995 122.036 288.76 122.969 288.604C123.604 288.604 125.239 288.365 127.864 287.875C130.5 287.375 133.557 286.771 137.031 286.063C140.448 285.344 143.989 284.578 147.656 283.771C151.323 282.953 154.432 282.26 156.989 281.688Z" fill="#4792DC"/>
<path d="M176.287 283.918C177.063 284.058 177.484 284.345 177.557 284.772C177.641 285.204 177.604 286.058 177.453 287.334C177.453 288.334 177.396 289.282 177.287 290.168C177.188 291.058 177.141 291.928 177.141 292.772C177.708 293.772 178.578 295.251 179.745 297.209C180.922 299.157 182.266 301.303 183.766 303.647C185.182 305.996 186.688 308.454 188.287 311.022C189.88 313.579 191.432 315.959 192.932 318.168C194.349 320.365 195.662 322.282 196.87 323.918C198.078 325.558 198.964 326.662 199.537 327.23C199.828 327.511 200.109 327.1 200.391 326.001C200.682 324.907 200.964 323.392 201.245 321.459C201.464 319.543 201.646 317.365 201.787 314.918C201.922 312.459 201.958 310.058 201.891 307.709C201.818 306.293 201.75 304.73 201.682 303.022C201.609 301.313 201.5 299.642 201.349 298.001C201.208 296.365 201.016 294.782 200.766 293.251C200.516 291.725 200.214 290.392 199.87 289.251C197.37 282.365 198.182 280.657 202.307 284.126C202.943 284.699 203.604 285.767 204.287 287.334C204.964 288.907 205.589 290.897 206.162 293.313C206.729 295.73 207.188 298.543 207.537 301.751C207.896 304.949 208.042 308.459 207.974 312.293C207.974 314.85 207.828 317.303 207.537 319.647C207.255 321.996 206.901 324.095 206.474 325.938C206.042 327.803 205.609 329.355 205.182 330.605C204.766 331.845 204.375 332.6 204.016 332.876C203.599 333.24 203.104 333.647 202.537 334.105C201.964 334.563 201.359 334.907 200.724 335.126C200.083 335.334 199.401 335.392 198.682 335.293C197.974 335.183 197.297 334.73 196.662 333.938C196.297 333.595 195.693 332.761 194.849 331.438C194 330.121 193.005 328.501 191.87 326.584C190.662 324.74 189.359 322.678 187.974 320.397C186.583 318.121 185.214 315.85 183.87 313.584C182.438 311.308 181.063 309.1 179.745 306.959C178.438 304.824 177.318 302.938 176.391 301.313C176.25 302.73 176.125 304.188 176.016 305.688C175.917 307.178 175.792 308.74 175.641 310.376C175.432 313.074 175.203 315.72 174.953 318.313C174.703 320.912 174.505 323.282 174.37 325.418C174.162 327.543 174 329.334 173.891 330.793C173.776 332.251 173.688 333.162 173.62 333.522C173.271 334.871 172.563 336.043 171.495 337.043C170.422 338.043 169.708 338.543 169.349 338.543C168.849 338.543 168.563 337.918 168.495 336.668C168.422 335.418 168.422 334.157 168.495 332.876C168.495 332.532 168.505 332.095 168.537 331.563C168.578 331.022 168.599 330.605 168.599 330.313C168.599 329.537 168.63 328.032 168.703 325.793C168.787 323.543 168.896 320.928 169.037 317.938C169.172 315.037 169.333 311.949 169.516 308.668C169.693 305.392 169.854 302.334 169.995 299.501C170.13 296.725 170.292 294.324 170.474 292.293C170.651 290.267 170.776 289.037 170.849 288.605C171.125 287.97 171.495 287.329 171.953 286.688C172.422 286.053 172.943 285.48 173.516 284.98C174.016 284.563 174.516 284.23 175.016 283.98C175.516 283.73 175.938 283.709 176.287 283.918Z" fill="#4792DC"/>
<path d="M229.186 282.313C229.754 282.537 230.108 282.865 230.249 283.293C230.4 283.709 230.4 284.49 230.249 285.626C230.176 285.766 230.144 285.834 230.144 285.834V286.272C231.144 286.053 232.212 285.855 233.353 285.688C234.488 285.511 235.665 285.35 236.874 285.209C237.441 285.126 238.025 285.074 238.624 285.043C239.233 285.001 239.858 284.98 240.499 284.98C242.634 284.98 244.712 285.22 246.728 285.688C248.754 286.147 250.519 286.949 252.019 288.084C253.504 289.225 254.624 290.751 255.374 292.668C256.124 294.584 256.353 297.001 256.061 299.918C255.853 301.918 255.03 304.147 253.603 306.605C252.186 309.053 250.415 311.553 248.29 314.105C246.15 316.746 243.759 319.329 241.124 321.855C238.499 324.371 235.874 326.699 233.249 328.834C230.608 331.032 228.082 332.912 225.665 334.48C223.249 336.053 221.15 337.157 219.374 337.793C218.092 338.141 217.186 338.141 216.644 337.793C216.113 337.433 215.853 336.97 215.853 336.397C215.78 335.897 215.905 335.386 216.228 334.855C216.545 334.329 216.884 333.99 217.249 333.834C217.592 333.699 218.087 333.49 218.728 333.209C219.379 332.918 220.025 332.558 220.665 332.126C220.733 330.282 220.853 327.793 221.019 324.668C221.196 321.543 221.4 318.204 221.624 314.647C221.832 311.162 222.04 307.662 222.249 304.147C222.467 300.621 222.686 297.501 222.894 294.793L222.04 295.126C221.54 295.266 221.004 295.459 220.436 295.709C219.863 295.959 219.374 296.157 218.957 296.293C217.957 296.657 217.259 296.746 216.874 296.563C216.483 296.386 216.29 296.043 216.29 295.543C216.217 295.043 216.301 294.459 216.54 293.793C216.79 293.115 217.061 292.454 217.353 291.813C217.42 291.678 217.457 291.595 217.457 291.563C217.457 291.522 217.488 291.428 217.561 291.272C217.696 290.996 218.28 290.574 219.311 290.001C220.353 289.433 221.728 288.865 223.436 288.293C223.504 287.933 223.54 287.647 223.54 287.438C223.54 287.23 223.54 287.162 223.54 287.23C223.816 286.595 224.207 285.938 224.707 285.272C225.207 284.595 225.738 284.001 226.311 283.501C226.879 283.001 227.426 282.647 227.957 282.438C228.499 282.22 228.941 282.209 229.29 282.418L229.186 282.313ZM249.665 299.063C249.816 297.287 249.551 295.886 248.874 294.855C248.191 293.829 247.249 293.032 246.04 292.459C244.832 291.959 243.441 291.641 241.874 291.501C240.316 291.35 238.754 291.313 237.186 291.397C234.905 291.47 232.457 291.855 229.832 292.563C229.691 294.688 229.499 297.287 229.249 300.355C228.999 303.412 228.728 306.574 228.436 309.834C228.155 313.115 227.894 316.313 227.644 319.438C227.394 322.563 227.165 325.23 226.957 327.438C229.374 325.595 231.858 323.459 234.415 321.043C236.967 318.626 239.353 316.141 241.561 313.584C243.769 311.016 245.613 308.475 247.103 305.959C248.603 303.433 249.457 301.136 249.665 299.063Z" fill="#4792DC"/>
<path d="M267.163 332.355C267.231 331.147 267.356 329.516 267.538 327.459C267.715 325.391 267.913 323.074 268.122 320.501C268.257 318.016 268.434 315.428 268.642 312.73C268.861 310.022 269.08 307.355 269.288 304.73C269.507 302.162 269.726 299.745 269.934 297.48C270.142 295.204 270.32 293.313 270.476 291.813C270.184 291.886 269.945 291.938 269.767 291.98C269.585 292.011 269.392 292.058 269.184 292.126L267.476 292.563C266.627 292.772 265.84 292.808 265.122 292.667C264.413 292.532 263.814 292.282 263.33 291.917C262.757 291.641 262.309 291.308 261.976 290.917C261.653 290.516 261.497 290.178 261.497 289.897C261.356 289.037 261.731 288.49 262.622 288.251C263.507 288.001 264.455 287.766 265.455 287.542C265.59 287.542 265.715 287.532 265.83 287.501C265.939 287.459 266.064 287.438 266.205 287.438C266.981 287.303 267.955 287.126 269.122 286.917C270.299 286.699 271.497 286.48 272.705 286.272C273.913 286.053 275.064 285.834 276.163 285.626C277.273 285.417 278.148 285.24 278.788 285.084C281.481 284.532 283.205 284.355 283.955 284.563C284.705 284.772 284.861 285.162 284.434 285.73C284.017 286.37 283.195 287.053 281.976 287.772C280.767 288.48 279.523 289.084 278.247 289.584V289.459C278.174 289.542 278.106 289.584 278.038 289.584C277.965 289.584 277.898 289.62 277.83 289.688H277.622C277.465 290.969 277.21 293.12 276.851 296.147C276.502 299.162 276.111 302.48 275.684 306.105C275.403 308.454 275.122 310.855 274.83 313.313C274.549 315.761 274.309 318.12 274.101 320.397C273.809 322.678 273.549 324.792 273.33 326.751C273.122 328.709 272.913 330.365 272.705 331.709C273.413 331.574 274.299 331.433 275.372 331.292C276.439 331.141 277.58 330.959 278.788 330.751C279.356 330.532 279.835 330.563 280.226 330.855C280.611 331.136 280.84 331.49 280.913 331.917C280.981 332.417 280.799 332.975 280.372 333.584C279.955 334.183 279.21 334.699 278.142 335.126C277.294 335.475 276.335 335.808 275.267 336.126C274.195 336.449 273.127 336.719 272.059 336.938C270.919 337.147 269.835 337.344 268.809 337.522C267.778 337.704 266.877 337.792 266.101 337.792C265.309 337.792 264.559 337.657 263.851 337.376C263.142 337.084 262.538 336.725 262.038 336.292C261.465 335.933 261.023 335.522 260.705 335.063C260.382 334.605 260.226 334.23 260.226 333.938C260.226 333.022 260.773 332.532 261.872 332.459C262.981 332.391 264.028 332.355 265.017 332.355H267.163Z" fill="#4792DC"/>
<path d="M298.301 283.918C299.077 284.058 299.499 284.345 299.572 284.772C299.656 285.204 299.619 286.058 299.468 287.334C299.468 288.334 299.411 289.282 299.301 290.168C299.202 291.058 299.156 291.928 299.156 292.772C299.723 293.772 300.593 295.251 301.76 297.209C302.937 299.157 304.281 301.303 305.781 303.647C307.197 305.996 308.702 308.454 310.301 311.022C311.895 313.579 313.447 315.959 314.947 318.168C316.364 320.365 317.676 322.282 318.885 323.918C320.093 325.558 320.979 326.662 321.551 327.23C321.843 327.511 322.124 327.1 322.406 326.001C322.697 324.907 322.979 323.392 323.26 321.459C323.479 319.543 323.661 317.365 323.801 314.918C323.937 312.459 323.973 310.058 323.906 307.709C323.833 306.293 323.765 304.73 323.697 303.022C323.624 301.313 323.515 299.642 323.364 298.001C323.223 296.365 323.031 294.782 322.781 293.251C322.531 291.725 322.229 290.392 321.885 289.251C319.385 282.365 320.197 280.657 324.322 284.126C324.958 284.699 325.619 285.767 326.301 287.334C326.979 288.907 327.604 290.897 328.176 293.313C328.744 295.73 329.202 298.543 329.551 301.751C329.911 304.949 330.057 308.459 329.989 312.293C329.989 314.85 329.843 317.303 329.551 319.647C329.27 321.996 328.916 324.095 328.489 325.938C328.057 327.803 327.624 329.355 327.197 330.605C326.781 331.845 326.39 332.6 326.031 332.876C325.614 333.24 325.119 333.647 324.551 334.105C323.979 334.563 323.374 334.907 322.739 335.126C322.098 335.334 321.416 335.392 320.697 335.293C319.989 335.183 319.312 334.73 318.676 333.938C318.312 333.595 317.708 332.761 316.864 331.438C316.015 330.121 315.02 328.501 313.885 326.584C312.676 324.74 311.374 322.678 309.989 320.397C308.598 318.121 307.229 315.85 305.885 313.584C304.452 311.308 303.077 309.1 301.76 306.959C300.452 304.824 299.333 302.938 298.406 301.313C298.265 302.73 298.14 304.188 298.031 305.688C297.932 307.178 297.807 308.74 297.656 310.376C297.447 313.074 297.218 315.72 296.968 318.313C296.718 320.912 296.52 323.282 296.385 325.418C296.176 327.543 296.015 329.334 295.906 330.793C295.791 332.251 295.702 333.162 295.635 333.522C295.286 334.871 294.577 336.043 293.51 337.043C292.437 338.043 291.723 338.543 291.364 338.543C290.864 338.543 290.577 337.918 290.51 336.668C290.437 335.418 290.437 334.157 290.51 332.876C290.51 332.532 290.52 332.095 290.551 331.563C290.593 331.022 290.614 330.605 290.614 330.313C290.614 329.537 290.645 328.032 290.718 325.793C290.801 323.543 290.911 320.928 291.051 317.938C291.187 315.037 291.348 311.949 291.531 308.668C291.708 305.392 291.869 302.334 292.01 299.501C292.145 296.725 292.307 294.324 292.489 292.293C292.666 290.267 292.791 289.037 292.864 288.605C293.14 287.97 293.51 287.329 293.968 286.688C294.437 286.053 294.958 285.48 295.531 284.98C296.031 284.563 296.531 284.23 297.031 283.98C297.531 283.73 297.952 283.709 298.301 283.918Z" fill="#4792DC"/>
<path d="M363.264 283.604C364.816 283.468 366.326 283.593 367.784 283.979C369.243 284.369 370.576 284.848 371.784 285.416C372.92 286.057 373.915 286.729 374.764 287.437C375.623 288.145 376.269 288.718 376.701 289.145C376.977 289.437 377.118 289.906 377.118 290.541C377.118 291.182 377.014 291.786 376.805 292.354C376.524 292.994 376.17 293.458 375.743 293.749C375.31 294.031 374.847 293.953 374.347 293.52C372.79 292.312 371.081 291.322 369.222 290.541C367.373 289.749 365.639 289.432 364.014 289.583C362.014 289.999 360.019 291.302 358.034 293.479C356.045 295.645 354.165 298.26 352.389 301.312C350.607 304.437 349.024 307.781 347.639 311.333C346.248 314.89 345.201 318.307 344.493 321.583C344.201 322.932 344.144 324.208 344.326 325.416C344.503 326.624 344.847 327.687 345.347 328.604C345.831 329.536 346.498 330.27 347.347 330.812C348.206 331.343 349.206 331.604 350.347 331.604C351.915 331.604 353.623 331.036 355.472 329.895C357.456 328.687 359.441 327.265 361.43 325.624C363.43 323.989 365.248 322.458 366.889 321.041C367.024 320.182 367.144 319.432 367.243 318.791C367.352 318.156 367.519 317.411 367.743 316.562C366.17 317.062 364.441 317.541 362.555 317.999C360.68 318.458 359.243 318.765 358.243 318.916C357.461 318.989 356.701 318.885 355.951 318.604C355.201 318.312 354.54 317.989 353.972 317.624C353.331 317.265 352.831 316.874 352.472 316.458C352.123 316.031 351.951 315.708 351.951 315.499C351.878 314.572 352.336 313.999 353.326 313.791C354.326 313.572 355.253 313.39 356.118 313.249C356.253 313.249 356.357 313.239 356.43 313.208C356.498 313.166 356.566 313.145 356.639 313.145C357.566 313.01 358.831 312.812 360.43 312.562C362.024 312.312 363.748 312.01 365.597 311.645C367.373 311.302 369.185 310.895 371.034 310.437C372.894 309.968 374.566 309.447 376.055 308.874C377.623 308.307 378.618 308.182 379.034 308.499C379.461 308.822 379.576 309.302 379.368 309.937C379.076 310.661 378.576 311.411 377.868 312.187C377.159 312.968 376.451 313.536 375.743 313.895V313.999C375.519 314.14 375.316 314.208 375.139 314.208C374.972 314.208 374.706 314.281 374.347 314.416C373.774 316.916 373.227 319.307 372.701 321.583C372.17 323.848 371.659 325.869 371.159 327.645C370.659 329.494 370.227 331.031 369.868 332.249C369.519 333.458 369.269 334.203 369.118 334.479C368.909 334.843 368.68 335.239 368.43 335.666C368.18 336.083 367.915 336.437 367.639 336.729C367.274 337.078 366.878 337.307 366.451 337.416C366.034 337.531 365.576 337.473 365.076 337.249C364.144 336.906 364.076 334.874 364.868 331.166C364.935 330.822 364.982 330.473 365.014 330.124C365.055 329.765 365.107 329.406 365.18 329.041C363.831 330.249 362.394 331.427 360.868 332.562C359.336 333.703 357.685 334.661 355.909 335.437C354.477 336.078 353.102 336.52 351.784 336.77C350.477 337.02 349.326 337.145 348.326 337.145C346.477 337.145 344.873 336.812 343.514 336.145C342.165 335.468 341.066 334.557 340.222 333.416C339.29 332.281 338.607 330.968 338.18 329.479C337.764 327.979 337.555 326.411 337.555 324.77C337.555 324.062 337.586 323.411 337.659 322.812C337.727 322.203 337.831 321.614 337.972 321.041C338.691 317.416 339.92 313.473 341.659 309.208C343.394 304.932 345.435 300.911 347.784 297.145C350.06 293.453 352.534 290.328 355.201 287.77C357.868 285.203 360.555 283.812 363.264 283.604Z" fill="#4792DC"/>
<path d="M143.24 369.354C146.5 369.062 149.115 369.364 151.073 370.25C153.031 371.14 154.474 372.052 155.406 372.979C155.75 373.328 155.979 373.911 156.094 374.729C156.203 375.552 156.146 376.281 155.927 376.916C155.719 377.625 155.328 378.104 154.76 378.354C154.187 378.604 153.479 378.375 152.635 377.666H152.74C150.599 375.89 147.682 375.322 143.99 375.958C141.849 376.322 139.745 377.572 137.677 379.708C135.62 381.833 133.74 384.427 132.031 387.479C130.25 390.604 128.74 393.932 127.49 397.458C126.25 400.973 125.385 404.26 124.885 407.312C124.604 409.885 125.177 412.041 126.594 413.791C128.021 415.531 130.198 416.395 133.115 416.395C133.682 416.395 134.37 416.343 135.177 416.229C135.995 416.119 136.724 415.994 137.365 415.854C139.432 415.354 141.354 414.593 143.135 413.562C144.911 412.536 146.578 411.52 148.135 410.52C148.786 410.093 149.391 409.682 149.948 409.291C150.516 408.906 151.083 408.531 151.656 408.166C152.224 407.822 152.646 407.77 152.927 408.02C153.219 408.27 153.396 408.64 153.469 409.125C153.552 409.697 153.479 410.322 153.26 411C153.052 411.682 152.698 412.229 152.198 412.645C151.625 413.286 150.786 414.052 149.677 414.937C148.578 415.828 147.354 416.703 146.01 417.562C144.594 418.411 143.135 419.208 141.635 419.958C140.146 420.708 138.687 421.223 137.26 421.5C136.12 421.656 135.083 421.765 134.156 421.833C133.24 421.906 132.323 421.937 131.406 421.937C128.698 421.937 126.453 421.494 124.677 420.604C122.896 419.718 121.51 418.52 120.51 417.02C119.521 415.536 118.885 413.833 118.594 411.916C118.312 409.989 118.281 407.994 118.49 405.937C118.917 402.244 119.969 398.333 121.635 394.208C123.302 390.083 125.307 386.244 127.656 382.687C129.932 379.135 132.437 376.114 135.177 373.625C137.927 371.125 140.615 369.703 143.24 369.354Z" fill="#4792DC"/>
<path d="M204.681 381.395C204.681 383.104 204.249 384.723 203.389 386.249C202.54 387.781 201.4 389.182 199.973 390.458C198.483 391.749 196.775 392.947 194.848 394.041C192.931 395.14 190.874 396.156 188.681 397.083C190.457 399.208 192.233 401.557 194.014 404.124C195.79 406.682 197.421 409.098 198.91 411.374C199.837 412.583 200.712 413.828 201.535 415.104C202.353 416.385 203.119 417.489 203.827 418.416C204.895 419.906 205.431 421.078 205.431 421.937C205.431 422.51 205.212 422.848 204.785 422.958C204.353 423.057 203.816 422.999 203.181 422.791C202.54 422.656 201.869 422.39 201.16 421.999C200.452 421.598 199.811 421.182 199.244 420.749C198.811 420.406 198.129 419.614 197.202 418.374C196.285 417.124 195.186 415.645 193.91 413.937C193.046 412.869 192.119 411.697 191.119 410.416C190.129 409.14 189.139 407.864 188.139 406.583C187.066 405.291 186.02 404.041 184.994 402.833C183.962 401.624 183.02 400.562 182.16 399.645C180.952 400.062 179.775 400.395 178.639 400.645C177.499 400.895 176.369 401.166 175.244 401.458C175.087 401.531 174.91 402.062 174.702 403.062C174.494 404.052 174.311 405.145 174.16 406.354C174.02 407.635 173.879 408.864 173.744 410.041C173.603 411.208 173.499 411.973 173.431 412.333C173.139 414.39 172.9 416.062 172.723 417.354C172.54 418.635 172.415 419.447 172.348 419.791C172.207 420.432 171.957 421.093 171.598 421.77C171.249 422.453 170.858 422.999 170.431 423.416C169.999 423.916 169.556 424.312 169.098 424.604C168.639 424.885 168.264 424.953 167.973 424.812C167.556 424.677 167.27 424.229 167.119 423.479C166.978 422.729 166.91 421.895 166.91 420.979C166.91 420.187 166.921 419.39 166.952 418.583C166.994 417.765 167.046 417.072 167.119 416.499C167.202 415.499 167.311 413.848 167.452 411.541C167.587 409.223 167.837 406.432 168.202 403.166C167.478 403.447 166.691 403.661 165.848 403.812C164.999 403.953 164.181 404.02 163.389 404.02C160.973 404.02 160.051 403.473 160.619 402.374C161.186 401.265 162.999 400.281 166.056 399.416C166.124 399.416 166.264 399.369 166.473 399.27C166.691 399.161 167.41 398.932 168.619 398.583C168.827 395.583 169.066 392.578 169.348 389.562C169.639 386.536 169.931 383.781 170.223 381.291C170.431 378.807 170.624 376.708 170.806 374.999C170.983 373.291 171.108 372.302 171.181 372.02C171.457 371.385 171.827 370.744 172.285 370.104C172.754 369.453 173.275 368.885 173.848 368.395C174.348 367.968 174.858 367.624 175.389 367.374C175.931 367.124 176.374 367.104 176.723 367.312C177.431 367.536 177.874 367.989 178.056 368.666C178.233 369.333 178.29 370.593 178.223 372.437C179.566 372.302 181.165 372.197 183.014 372.124C184.858 372.057 186.785 372.093 188.785 372.229C190.702 372.369 192.598 372.598 194.473 372.916C196.358 373.239 198.087 373.749 199.66 374.458C201.16 375.182 202.369 376.114 203.285 377.249C204.212 378.374 204.681 379.76 204.681 381.395ZM177.91 377.354C177.619 379.479 177.275 382.27 176.889 385.729C176.499 389.177 176.02 392.744 175.452 396.437C177.936 395.593 180.525 394.635 183.223 393.562C185.931 392.494 188.421 391.354 190.702 390.145C192.91 388.937 194.744 387.718 196.202 386.479C197.66 385.229 198.389 383.968 198.389 382.687C198.389 381.552 197.764 380.624 196.514 379.916C195.264 379.197 193.645 378.624 191.66 378.208C189.671 377.848 187.473 377.598 185.056 377.458C182.639 377.322 180.254 377.286 177.91 377.354Z" fill="#4792DC"/>
<path d="M223.551 379.479C224.687 379.479 225.27 379.979 225.301 380.979C225.343 381.969 225.218 383.391 224.926 385.25C224.853 385.458 224.822 385.656 224.822 385.833C224.822 386 224.786 386.198 224.718 386.417L224.614 386.625C224.473 387.557 224.291 388.646 224.072 389.896C223.864 391.135 223.583 392.891 223.239 395.167C225.291 394.031 227.598 393.073 230.155 392.292C232.723 391.5 235.182 390.854 237.53 390.354C239.874 389.854 241.937 389.521 243.718 389.354C245.494 389.177 246.666 389.12 247.239 389.188C247.655 389.26 248.124 389.406 248.655 389.625C249.197 389.833 249.645 390.078 250.01 390.354C250.286 390.719 250.458 391.078 250.53 391.438C250.598 391.786 250.39 392.104 249.905 392.396C249.114 392.745 248.557 392.974 248.239 393.083C247.916 393.198 247.723 393.25 247.655 393.25C247.515 393.323 247.411 393.354 247.343 393.354C247.27 393.354 247.124 393.391 246.905 393.458C245.489 393.807 243.708 394.266 241.572 394.833C239.447 395.406 237.244 396.042 234.968 396.75C232.619 397.542 230.343 398.417 228.135 399.375C225.926 400.333 224.01 401.385 222.385 402.521C222.301 403.302 222.239 404.052 222.197 404.771C222.166 405.479 222.155 406.156 222.155 406.792C222.155 408.573 222.28 410.156 222.53 411.542C222.78 412.917 223.223 413.969 223.864 414.688C224.572 415.396 225.405 415.896 226.364 416.188C227.333 416.469 228.39 416.604 229.53 416.604C229.947 416.604 230.473 416.604 231.114 416.604C231.765 416.604 232.369 416.536 232.926 416.396C234.218 416.104 235.624 415.698 237.155 415.167C238.682 414.625 240.187 414.036 241.676 413.396C243.103 412.828 244.426 412.245 245.635 411.646C246.843 411.036 247.833 410.516 248.614 410.083C248.905 409.948 249.541 409.865 250.53 409.833C251.53 409.792 252.348 409.917 252.989 410.208C253.557 410.49 253.682 410.979 253.364 411.688C253.041 412.396 251.708 413.432 249.364 414.792H249.468C248.26 415.5 246.744 416.302 244.926 417.188C243.119 418.078 241.182 418.911 239.114 419.688C236.989 420.479 234.843 421.141 232.676 421.667C230.51 422.198 228.536 422.458 226.76 422.458C224.76 422.458 223.187 422.141 222.051 421.5C220.062 420.365 218.64 418.906 217.78 417.125C216.932 415.349 216.369 413.328 216.093 411.063C215.801 408.786 215.864 405.354 216.28 400.771C216.708 396.177 217.286 391.073 218.01 385.458C218.218 384.182 218.572 383.156 219.072 382.375C219.572 381.583 220.103 380.974 220.676 380.542C221.176 380.125 221.687 379.849 222.218 379.708C222.744 379.557 223.187 379.479 223.551 379.479ZM248.405 366.688C250.89 366.12 252.468 365.979 253.135 366.271C253.812 366.552 253.947 367.01 253.53 367.646C253.098 368.286 252.327 368.995 251.218 369.771C250.119 370.552 249.036 371.188 247.968 371.688C247.395 371.911 246.348 372.25 244.822 372.708C243.291 373.167 241.499 373.682 239.447 374.25C237.307 374.823 235.062 375.427 232.718 376.063C230.369 376.703 228.166 377.271 226.114 377.771C223.973 378.344 222.072 378.807 220.405 379.167C218.739 379.516 217.577 379.724 216.926 379.792C216.145 379.875 215.385 379.781 214.635 379.5C213.895 379.208 213.244 378.849 212.676 378.417C212.036 377.99 211.515 377.563 211.114 377.146C210.723 376.719 210.53 376.323 210.53 375.958C210.39 375.182 210.765 374.635 211.655 374.313C212.541 373.995 213.452 373.76 214.385 373.604C215.02 373.604 216.655 373.365 219.28 372.875C221.916 372.375 224.973 371.771 228.447 371.063C231.864 370.344 235.405 369.578 239.072 368.771C242.739 367.953 245.848 367.26 248.405 366.688Z" fill="#4792DC"/>
<path d="M273.14 367.313C273.708 367.537 274.062 367.865 274.203 368.293C274.354 368.709 274.354 369.49 274.203 370.626C274.13 370.766 274.098 370.834 274.098 370.834V371.272C275.098 371.053 276.166 370.855 277.307 370.688C278.442 370.511 279.619 370.35 280.828 370.209C281.395 370.126 281.979 370.074 282.578 370.043C283.187 370.001 283.812 369.98 284.453 369.98C286.588 369.98 288.666 370.22 290.682 370.688C292.708 371.147 294.473 371.949 295.973 373.084C297.458 374.225 298.578 375.751 299.328 377.668C300.078 379.584 300.307 382.001 300.015 384.918C299.807 386.918 298.984 389.147 297.557 391.605C296.14 394.053 294.369 396.553 292.244 399.105C290.104 401.746 287.713 404.329 285.078 406.855C282.453 409.371 279.828 411.699 277.203 413.834C274.562 416.032 272.036 417.912 269.619 419.48C267.203 421.053 265.104 422.157 263.328 422.793C262.046 423.141 261.14 423.141 260.598 422.793C260.067 422.433 259.807 421.97 259.807 421.397C259.734 420.897 259.859 420.386 260.182 419.855C260.499 419.329 260.838 418.99 261.203 418.834C261.546 418.699 262.041 418.49 262.682 418.209C263.333 417.918 263.979 417.558 264.619 417.126C264.687 415.282 264.807 412.793 264.973 409.668C265.151 406.543 265.354 403.204 265.578 399.647C265.786 396.162 265.994 392.662 266.203 389.147C266.421 385.621 266.64 382.501 266.848 379.793L265.994 380.126C265.494 380.266 264.958 380.459 264.39 380.709C263.817 380.959 263.328 381.157 262.911 381.293C261.911 381.657 261.213 381.746 260.828 381.563C260.437 381.386 260.244 381.043 260.244 380.543C260.171 380.043 260.255 379.459 260.494 378.793C260.744 378.115 261.015 377.454 261.307 376.813C261.374 376.678 261.411 376.595 261.411 376.563C261.411 376.522 261.442 376.428 261.515 376.272C261.651 375.996 262.234 375.574 263.265 375.001C264.307 374.433 265.682 373.865 267.39 373.293C267.458 372.933 267.494 372.647 267.494 372.438C267.494 372.23 267.494 372.162 267.494 372.23C267.77 371.595 268.161 370.938 268.661 370.272C269.161 369.595 269.692 369.001 270.265 368.501C270.833 368.001 271.38 367.647 271.911 367.438C272.453 367.22 272.895 367.209 273.244 367.418L273.14 367.313ZM293.619 384.063C293.77 382.287 293.505 380.886 292.828 379.855C292.145 378.829 291.203 378.032 289.994 377.459C288.786 376.959 287.395 376.641 285.828 376.501C284.27 376.35 282.708 376.313 281.14 376.397C278.859 376.47 276.411 376.855 273.786 377.563C273.645 379.688 273.453 382.287 273.203 385.355C272.953 388.412 272.682 391.574 272.39 394.834C272.109 398.115 271.848 401.313 271.598 404.438C271.348 407.563 271.119 410.23 270.911 412.438C273.328 410.595 275.812 408.459 278.369 406.043C280.921 403.626 283.307 401.141 285.515 398.584C287.723 396.016 289.567 393.475 291.057 390.959C292.557 388.433 293.411 386.136 293.619 384.063Z" fill="#4792DC"/>
<path d="M311.117 417.355C311.185 416.147 311.31 414.516 311.492 412.459C311.669 410.391 311.867 408.074 312.076 405.501C312.211 403.016 312.388 400.428 312.596 397.73C312.815 395.022 313.034 392.355 313.242 389.73C313.461 387.162 313.68 384.745 313.888 382.48C314.096 380.204 314.273 378.313 314.43 376.813C314.138 376.886 313.898 376.938 313.721 376.98C313.539 377.011 313.346 377.058 313.138 377.126L311.43 377.563C310.581 377.772 309.794 377.808 309.076 377.667C308.367 377.532 307.768 377.282 307.284 376.917C306.711 376.641 306.263 376.308 305.93 375.917C305.607 375.516 305.451 375.178 305.451 374.897C305.31 374.037 305.685 373.49 306.576 373.251C307.461 373.001 308.409 372.766 309.409 372.542C309.544 372.542 309.669 372.532 309.784 372.501C309.893 372.459 310.018 372.438 310.159 372.438C310.935 372.303 311.909 372.126 313.076 371.917C314.253 371.699 315.451 371.48 316.659 371.272C317.867 371.053 319.018 370.834 320.117 370.626C321.227 370.417 322.102 370.24 322.742 370.084C325.435 369.532 327.159 369.355 327.909 369.563C328.659 369.772 328.815 370.162 328.388 370.73C327.971 371.37 327.148 372.053 325.93 372.772C324.721 373.48 323.477 374.084 322.201 374.584V374.459C322.128 374.542 322.06 374.584 321.992 374.584C321.919 374.584 321.852 374.62 321.784 374.688H321.576C321.419 375.969 321.164 378.12 320.805 381.147C320.456 384.162 320.065 387.48 319.638 391.105C319.357 393.454 319.076 395.855 318.784 398.313C318.503 400.761 318.263 403.12 318.055 405.397C317.763 407.678 317.503 409.792 317.284 411.751C317.076 413.709 316.867 415.365 316.659 416.709C317.367 416.574 318.253 416.433 319.326 416.292C320.393 416.141 321.534 415.959 322.742 415.751C323.31 415.532 323.789 415.563 324.18 415.855C324.565 416.136 324.794 416.49 324.867 416.917C324.935 417.417 324.753 417.975 324.326 418.584C323.909 419.183 323.164 419.699 322.096 420.126C321.247 420.475 320.289 420.808 319.221 421.126C318.148 421.449 317.081 421.719 316.013 421.938C314.872 422.147 313.789 422.344 312.763 422.522C311.732 422.704 310.831 422.792 310.055 422.792C309.263 422.792 308.513 422.657 307.805 422.376C307.096 422.084 306.492 421.725 305.992 421.292C305.419 420.933 304.977 420.522 304.659 420.063C304.336 419.605 304.18 419.23 304.18 418.938C304.18 418.022 304.727 417.532 305.826 417.459C306.935 417.391 307.982 417.355 308.971 417.355H311.117Z" fill="#4792DC"/>
<path d="M377.464 370.312C378.031 370.453 378.453 370.521 378.735 370.521C379.511 370.661 380.24 370.823 380.922 371C381.599 371.182 381.87 371.661 381.735 372.437C381.651 373.37 381.005 373.958 379.797 374.208C378.589 374.458 377.057 374.656 375.214 374.792C372.724 375 370.401 375.198 368.235 375.375C366.068 375.557 363.912 375.823 361.776 376.167C361.636 376.739 361.531 377.417 361.464 378.208C361.099 379.989 360.693 382.187 360.235 384.812C359.776 387.437 359.297 390.208 358.797 393.125C358.224 396.114 357.672 399.12 357.13 402.146C356.599 405.177 356.089 407.932 355.589 410.417C355.089 412.906 354.677 415 354.36 416.708C354.037 418.417 353.807 419.448 353.672 419.792C353.172 421.156 352.349 422.265 351.214 423.125C350.073 423.974 349.328 424.354 348.985 424.271C348.693 424.203 348.49 423.87 348.38 423.271C348.281 422.661 348.235 421.932 348.235 421.083C348.235 420.224 348.281 419.333 348.38 418.417C348.49 417.489 348.615 416.667 348.755 415.958C348.839 415.323 348.985 414.135 349.193 412.396C349.401 410.646 349.682 408.599 350.047 406.25C350.323 403.906 350.656 401.364 351.047 398.625C351.448 395.89 351.823 393.208 352.172 390.583C352.531 387.948 352.886 385.453 353.235 383.104C353.594 380.76 353.922 378.807 354.214 377.25C353.141 377.39 352.177 377.552 351.318 377.729C350.469 377.896 349.578 378.057 348.651 378.208C346.162 378.557 344.136 378.854 342.568 379.104C341.011 379.354 339.948 379.411 339.38 379.271C336.531 378.911 334.537 378.021 333.401 376.604C332.969 376.104 332.948 375.661 333.339 375.271C333.74 374.885 334.365 374.542 335.214 374.25C336.073 373.974 337.016 373.765 338.047 373.625C339.073 373.474 339.974 373.328 340.755 373.187C340.906 373.12 341.464 373.052 342.422 372.979C343.38 372.911 344.36 372.802 345.36 372.646C346.703 372.51 348.266 372.37 350.047 372.229C351.823 372.094 353.672 371.911 355.589 371.687C356.297 370.62 357.255 369.75 358.464 369.083C359.672 368.406 360.557 368.349 361.13 368.917C361.49 369.281 361.74 369.552 361.88 369.729C362.016 369.896 362.13 370.302 362.214 370.937C365.474 370.661 368.474 370.453 371.214 370.312C373.948 370.161 375.995 370.161 377.36 370.312H377.464Z" fill="#4792DC"/>
</svg>
