<svg width="500" height="500" viewBox="0 0 500 500" fill="none" xmlns="http://www.w3.org/2000/svg">
<path d="M46.7866 235.355C47.646 235.355 48.0887 235.73 48.12 236.48C48.146 237.23 48.047 238.303 47.8283 239.688C47.7866 239.844 47.7658 239.99 47.7658 240.126C47.7658 240.251 47.7345 240.396 47.6825 240.563L47.5991 240.73C47.4845 241.412 47.3491 242.225 47.1825 243.167C47.0262 244.1 46.8179 245.417 46.5575 247.126C48.0991 246.266 49.8283 245.542 51.745 244.959C53.672 244.376 55.5158 243.896 57.2658 243.521C59.0262 243.146 60.5783 242.896 61.9116 242.771C63.245 242.636 64.1252 242.594 64.5575 242.646C64.8752 242.704 65.2345 242.813 65.6408 242.98C66.0418 243.136 66.3752 243.313 66.6408 243.521C66.8491 243.787 66.9793 244.058 67.0366 244.334C67.0887 244.6 66.9325 244.834 66.5575 245.042C65.9741 245.308 65.5575 245.48 65.3075 245.563C65.0679 245.646 64.922 245.688 64.87 245.688C64.771 245.73 64.6929 245.751 64.6408 245.751C64.5835 245.751 64.4741 245.782 64.3075 245.834C63.2502 246.115 61.9168 246.469 60.3075 246.896C58.7085 247.313 57.0575 247.787 55.3491 248.313C53.5991 248.912 51.896 249.574 50.245 250.292C48.5887 251.001 47.146 251.787 45.9116 252.646C45.8543 253.23 45.8127 253.792 45.7866 254.334C45.771 254.865 45.7658 255.365 45.7658 255.834C45.7658 257.167 45.8543 258.355 46.0366 259.396C46.2137 260.438 46.547 261.225 47.0366 261.751C47.5627 262.292 48.1877 262.678 48.9116 262.896C49.6304 263.105 50.4168 263.209 51.2658 263.209C51.5991 263.209 52.0002 263.209 52.4741 263.209C52.9585 263.209 53.4116 263.157 53.8283 263.042C54.7866 262.834 55.8387 262.532 56.995 262.126C58.146 261.725 59.2762 261.282 60.3908 260.792C61.4585 260.376 62.4429 259.938 63.3491 259.48C64.2658 259.021 65.0158 258.636 65.5991 258.313C65.8075 258.219 66.2866 258.157 67.0366 258.126C67.7866 258.1 68.396 258.188 68.87 258.396C69.297 258.62 69.3908 258.995 69.1408 259.521C68.9012 260.053 67.9116 260.824 66.1616 261.834H66.245C65.3283 262.376 64.1877 262.98 62.8283 263.646C61.4637 264.313 60.0158 264.938 58.4741 265.521C56.8752 266.105 55.2658 266.6 53.6408 267.001C52.0158 267.407 50.5366 267.605 49.2033 267.605C47.7033 267.605 46.5262 267.365 45.6825 266.876C44.1825 266.032 43.1095 264.938 42.4741 263.605C41.8335 262.271 41.4116 260.751 41.2033 259.042C40.9793 257.334 41.0262 254.766 41.3491 251.334C41.6668 247.891 42.0991 244.058 42.6408 239.834C42.7918 238.876 43.0575 238.105 43.4325 237.521C43.8075 236.938 44.2085 236.49 44.6408 236.167C45.0158 235.85 45.396 235.636 45.7866 235.521C46.1877 235.412 46.521 235.355 46.7866 235.355ZM65.4325 225.751C67.3075 225.334 68.495 225.23 68.995 225.438C69.5054 225.646 69.5991 225.995 69.2658 226.48C68.9429 226.969 68.37 227.501 67.5366 228.084C66.7137 228.667 65.9116 229.146 65.12 229.521C64.6877 229.678 63.896 229.928 62.745 230.271C61.6043 230.62 60.2658 231.011 58.7241 231.438C57.1095 231.87 55.422 232.329 53.6616 232.813C51.9116 233.287 50.2658 233.709 48.7241 234.084C47.1095 234.516 45.6825 234.865 44.4325 235.126C43.1825 235.391 42.3127 235.553 41.8283 235.605C41.245 235.662 40.6668 235.584 40.0991 235.376C39.5418 235.157 39.0575 234.886 38.6408 234.563C38.1512 234.245 37.7658 233.928 37.4741 233.605C37.1825 233.287 37.0366 232.995 37.0366 232.73C36.922 232.136 37.2033 231.719 37.87 231.48C38.5366 231.245 39.2137 231.074 39.9116 230.959C40.396 230.959 41.6252 230.771 43.5991 230.396C45.5679 230.021 47.8595 229.574 50.4741 229.042C53.0262 228.516 55.6825 227.949 58.4325 227.334C61.1825 226.709 63.5158 226.183 65.4325 225.751Z" fill="#4792DC"/>
<path d="M79.9191 227.437C80.5024 227.551 80.8201 227.765 80.8774 228.082C80.9295 228.405 80.9035 229.041 80.7941 229.999C80.7941 230.749 80.7524 231.457 80.6691 232.124C80.5962 232.791 80.5649 233.447 80.5649 234.082C80.9816 234.832 81.6274 235.947 82.5024 237.416C83.3879 238.874 84.3983 240.489 85.5233 242.249C86.5754 243.999 87.7004 245.843 88.8983 247.77C90.1066 249.687 91.2733 251.473 92.3983 253.124C93.466 254.78 94.4504 256.218 95.3566 257.437C96.2576 258.66 96.9243 259.489 97.3566 259.916C97.5649 260.14 97.7733 259.832 97.9816 258.999C98.2004 258.166 98.4191 257.035 98.6274 255.603C98.7941 254.16 98.9243 252.52 99.0233 250.687C99.1326 248.843 99.1587 247.035 99.1066 245.27C99.0649 244.218 99.0128 243.051 98.9608 241.77C98.9035 240.478 98.8201 239.223 98.7108 237.999C98.6118 236.78 98.466 235.598 98.2733 234.457C98.091 233.306 97.8618 232.301 97.5858 231.437C95.7212 226.27 96.341 224.994 99.4399 227.603C99.9087 228.035 100.398 228.832 100.898 229.999C101.409 231.166 101.883 232.66 102.315 234.478C102.742 236.301 103.091 238.41 103.357 240.812C103.617 243.202 103.721 245.843 103.669 248.728C103.669 250.645 103.565 252.489 103.357 254.249C103.148 255.999 102.883 257.572 102.565 258.957C102.242 260.348 101.919 261.509 101.586 262.437C101.263 263.369 100.971 263.947 100.711 264.166C100.388 264.431 100.013 264.739 99.5858 265.082C99.1691 265.431 98.716 265.681 98.2316 265.832C97.7576 265.999 97.2524 266.041 96.7108 265.957C96.1795 265.874 95.6743 265.541 95.1899 264.957C94.9243 264.697 94.4712 264.072 93.8358 263.082C93.1951 262.098 92.4451 260.884 91.5858 259.437C90.6795 258.051 89.7108 256.509 88.6691 254.812C87.6274 253.103 86.5962 251.395 85.5858 249.687C84.5285 247.978 83.5076 246.327 82.5233 244.728C81.5337 243.119 80.6951 241.702 80.0024 240.478C79.8879 241.551 79.7941 242.645 79.7108 243.77C79.6274 244.884 79.5337 246.051 79.4399 247.27C79.2733 249.301 79.091 251.291 78.8983 253.249C78.716 255.197 78.5754 256.968 78.4816 258.562C78.3149 260.16 78.1899 261.509 78.1066 262.603C78.0337 263.702 77.9712 264.384 77.9191 264.645C77.6535 265.66 77.117 266.541 76.3149 267.291C75.5076 268.03 74.9712 268.395 74.7108 268.395C74.3358 268.395 74.117 267.931 74.0649 266.999C74.0233 266.072 74.0285 265.124 74.0858 264.166C74.0858 263.89 74.091 263.556 74.1066 263.166C74.1326 262.765 74.1483 262.457 74.1483 262.249C74.1483 261.655 74.1743 260.515 74.2316 258.832C74.2837 257.155 74.367 255.197 74.4816 252.957C74.5754 250.78 74.6951 248.457 74.8358 245.999C74.9712 243.541 75.091 241.249 75.1899 239.124C75.2993 237.041 75.4191 235.244 75.5441 233.728C75.6795 232.202 75.7785 231.28 75.8358 230.957C76.0441 230.489 76.3201 230.009 76.6691 229.52C77.0129 229.035 77.4035 228.614 77.8358 228.249C78.2108 227.916 78.5858 227.66 78.9608 227.478C79.3358 227.301 79.6535 227.285 79.9191 227.437Z" fill="#4792DC"/>
<path d="M119.602 226.25C120.019 226.406 120.279 226.64 120.394 226.958C120.503 227.281 120.503 227.869 120.394 228.729C120.337 228.828 120.311 228.875 120.311 228.875V229.208C121.061 229.041 121.857 228.895 122.706 228.77C123.566 228.635 124.446 228.51 125.352 228.395C125.779 228.343 126.217 228.307 126.665 228.291C127.123 228.265 127.592 228.25 128.081 228.25C129.675 228.25 131.232 228.427 132.748 228.77C134.274 229.104 135.592 229.703 136.706 230.562C137.831 231.411 138.67 232.557 139.227 234C139.795 235.447 139.967 237.26 139.748 239.437C139.592 240.937 138.982 242.614 137.915 244.458C136.842 246.291 135.509 248.166 133.915 250.083C132.316 252.057 130.529 253.994 128.561 255.895C126.587 257.786 124.613 259.531 122.644 261.125C120.67 262.781 118.774 264.197 116.956 265.375C115.134 266.541 113.561 267.364 112.227 267.833C111.269 268.114 110.587 268.119 110.186 267.854C109.795 267.578 109.602 267.224 109.602 266.791C109.545 266.432 109.634 266.052 109.873 265.645C110.107 265.244 110.363 264.989 110.644 264.875C110.904 264.781 111.274 264.625 111.748 264.416C112.232 264.197 112.712 263.927 113.186 263.604C113.238 262.218 113.337 260.349 113.477 258C113.613 255.656 113.759 253.145 113.915 250.479C114.081 247.869 114.238 245.244 114.394 242.604C114.561 239.968 114.717 237.635 114.873 235.604L114.227 235.833C113.863 235.947 113.467 236.099 113.04 236.291C112.607 236.474 112.232 236.619 111.915 236.729C111.165 236.994 110.644 237.062 110.352 236.937C110.061 236.802 109.915 236.541 109.915 236.166C109.857 235.791 109.92 235.354 110.102 234.854C110.295 234.343 110.498 233.843 110.706 233.354C110.759 233.26 110.79 233.197 110.79 233.166C110.79 233.14 110.816 233.072 110.873 232.958C110.982 232.75 111.42 232.432 112.186 232C112.962 231.572 113.988 231.145 115.269 230.729C115.321 230.453 115.352 230.239 115.352 230.083C115.352 229.916 115.352 229.864 115.352 229.916C115.571 229.447 115.863 228.958 116.227 228.458C116.602 227.947 117.003 227.5 117.436 227.125C117.863 226.75 118.274 226.489 118.665 226.333C119.066 226.166 119.404 226.161 119.686 226.312L119.602 226.25ZM134.956 238.791C135.066 237.458 134.863 236.411 134.352 235.645C133.852 234.869 133.144 234.265 132.227 233.833C131.321 233.458 130.279 233.224 129.102 233.125C127.936 233.015 126.769 232.989 125.602 233.041C123.894 233.099 122.05 233.39 120.081 233.916C119.967 235.515 119.816 237.468 119.623 239.77C119.441 242.062 119.248 244.432 119.04 246.875C118.816 249.333 118.613 251.739 118.436 254.083C118.253 256.432 118.081 258.432 117.915 260.083C119.732 258.697 121.602 257.099 123.519 255.291C125.436 253.474 127.217 251.604 128.873 249.687C130.524 247.76 131.904 245.849 133.019 243.958C134.144 242.072 134.79 240.349 134.956 238.791Z" fill="#4792DC"/>
<path d="M148.078 263.749C148.13 262.848 148.224 261.624 148.349 260.082C148.484 258.53 148.63 256.791 148.786 254.874C148.896 253.015 149.026 251.072 149.182 249.041C149.349 247.015 149.515 245.015 149.682 243.041C149.833 241.124 149.984 239.312 150.14 237.603C150.307 235.895 150.443 234.478 150.557 233.353C150.349 233.411 150.172 233.452 150.036 233.478C149.896 233.51 149.75 233.551 149.599 233.603L148.307 233.916C147.667 234.082 147.083 234.114 146.557 233.999C146.026 233.89 145.578 233.702 145.203 233.437C144.771 233.228 144.432 232.978 144.182 232.687C143.943 232.395 143.828 232.14 143.828 231.916C143.729 231.28 144.015 230.869 144.682 230.687C145.349 230.494 146.047 230.322 146.786 230.166C146.896 230.166 146.995 230.155 147.078 230.124C147.161 230.098 147.25 230.082 147.349 230.082C147.943 229.973 148.682 229.843 149.557 229.687C150.432 229.52 151.328 229.364 152.245 229.207C153.146 229.041 154.005 228.885 154.828 228.728C155.661 228.562 156.312 228.426 156.786 228.312C158.812 227.895 160.104 227.77 160.661 227.937C161.229 228.093 161.354 228.374 161.036 228.791C160.713 229.28 160.099 229.791 159.182 230.332C158.276 230.864 157.349 231.312 156.39 231.687V231.603C156.333 231.661 156.286 231.687 156.245 231.687C156.187 231.687 156.13 231.707 156.078 231.749H155.911C155.812 232.723 155.625 234.343 155.349 236.603C155.083 238.869 154.792 241.364 154.474 244.082C154.265 245.848 154.047 247.655 153.828 249.499C153.62 251.332 153.432 253.098 153.265 254.791C153.057 256.499 152.87 258.093 152.703 259.562C152.547 261.02 152.396 262.26 152.245 263.27C152.771 263.176 153.432 263.072 154.224 262.957C155.026 262.848 155.88 262.718 156.786 262.562C157.213 262.395 157.578 262.426 157.87 262.645C158.161 262.853 158.333 263.119 158.39 263.437C158.443 263.812 158.312 264.228 157.995 264.687C157.672 265.135 157.109 265.515 156.307 265.832C155.667 266.114 154.943 266.369 154.14 266.603C153.349 266.843 152.557 267.041 151.765 267.207C150.901 267.364 150.083 267.51 149.307 267.645C148.542 267.77 147.859 267.832 147.265 267.832C146.682 267.832 146.12 267.728 145.578 267.52C145.047 267.312 144.604 267.051 144.245 266.728C143.812 266.452 143.474 266.14 143.224 265.791C142.984 265.447 142.87 265.166 142.87 264.957C142.87 264.265 143.276 263.89 144.099 263.832C144.932 263.78 145.724 263.749 146.474 263.749H148.078Z" fill="#4792DC"/>
<path d="M171.439 227.437C172.022 227.551 172.34 227.765 172.397 228.082C172.449 228.405 172.423 229.041 172.314 229.999C172.314 230.749 172.272 231.457 172.189 232.124C172.116 232.791 172.084 233.447 172.084 234.082C172.501 234.832 173.147 235.947 174.022 237.416C174.907 238.874 175.918 240.489 177.043 242.249C178.095 243.999 179.22 245.843 180.418 247.77C181.626 249.687 182.793 251.473 183.918 253.124C184.986 254.78 185.97 256.218 186.876 257.437C187.777 258.66 188.444 259.489 188.876 259.916C189.084 260.14 189.293 259.832 189.501 258.999C189.72 258.166 189.939 257.035 190.147 255.603C190.314 254.16 190.444 252.52 190.543 250.687C190.652 248.843 190.678 247.035 190.626 245.27C190.584 244.218 190.532 243.051 190.48 241.77C190.423 240.478 190.34 239.223 190.23 237.999C190.131 236.78 189.986 235.598 189.793 234.457C189.611 233.306 189.381 232.301 189.105 231.437C187.241 226.27 187.861 224.994 190.959 227.603C191.428 228.035 191.918 228.832 192.418 229.999C192.928 231.166 193.402 232.66 193.834 234.478C194.262 236.301 194.611 238.41 194.876 240.812C195.137 243.202 195.241 245.843 195.189 248.728C195.189 250.645 195.084 252.489 194.876 254.249C194.668 255.999 194.402 257.572 194.084 258.957C193.762 260.348 193.439 261.509 193.105 262.437C192.782 263.369 192.491 263.947 192.23 264.166C191.907 264.431 191.532 264.739 191.105 265.082C190.689 265.431 190.236 265.681 189.751 265.832C189.277 265.999 188.772 266.041 188.23 265.957C187.699 265.874 187.194 265.541 186.709 264.957C186.444 264.697 185.991 264.072 185.355 263.082C184.715 262.098 183.965 260.884 183.105 259.437C182.199 258.051 181.23 256.509 180.189 254.812C179.147 253.103 178.116 251.395 177.105 249.687C176.048 247.978 175.027 246.327 174.043 244.728C173.053 243.119 172.215 241.702 171.522 240.478C171.407 241.551 171.314 242.645 171.23 243.77C171.147 244.884 171.053 246.051 170.959 247.27C170.793 249.301 170.611 251.291 170.418 253.249C170.236 255.197 170.095 256.968 170.001 258.562C169.834 260.16 169.709 261.509 169.626 262.603C169.553 263.702 169.491 264.384 169.439 264.645C169.173 265.66 168.637 266.541 167.834 267.291C167.027 268.03 166.491 268.395 166.23 268.395C165.855 268.395 165.637 267.931 165.584 266.999C165.543 266.072 165.548 265.124 165.605 264.166C165.605 263.89 165.611 263.556 165.626 263.166C165.652 262.765 165.668 262.457 165.668 262.249C165.668 261.655 165.694 260.515 165.751 258.832C165.803 257.155 165.887 255.197 166.001 252.957C166.095 250.78 166.215 248.457 166.355 245.999C166.491 243.541 166.611 241.249 166.709 239.124C166.819 237.041 166.939 235.244 167.064 233.728C167.199 232.202 167.298 231.28 167.355 230.957C167.564 230.489 167.84 230.009 168.189 229.52C168.532 229.035 168.923 228.614 169.355 228.249C169.73 227.916 170.105 227.66 170.48 227.478C170.855 227.301 171.173 227.285 171.439 227.437Z" fill="#4792DC"/>
<path d="M220.164 227.209C221.33 227.1 222.461 227.188 223.56 227.48C224.653 227.772 225.653 228.136 226.56 228.563C227.403 229.037 228.148 229.543 228.789 230.084C229.424 230.616 229.903 231.037 230.226 231.355C230.445 231.579 230.56 231.933 230.56 232.418C230.56 232.892 230.476 233.334 230.31 233.751C230.101 234.241 229.836 234.595 229.518 234.813C229.195 235.022 228.851 234.97 228.476 234.647C227.294 233.73 226.007 232.98 224.622 232.397C223.247 231.813 221.94 231.579 220.705 231.688C219.216 232.011 217.726 232.98 216.226 234.605C214.737 236.23 213.33 238.188 211.997 240.48C210.664 242.829 209.476 245.334 208.435 248.001C207.393 250.668 206.606 253.23 206.08 255.688C205.856 256.704 205.815 257.662 205.955 258.563C206.091 259.47 206.341 260.267 206.705 260.959C207.08 261.657 207.586 262.204 208.226 262.605C208.877 263.011 209.627 263.209 210.476 263.209C211.643 263.209 212.919 262.782 214.31 261.918C215.81 261.017 217.299 259.954 218.789 258.73C220.289 257.496 221.648 256.345 222.872 255.272C222.981 254.636 223.07 254.079 223.143 253.605C223.226 253.121 223.351 252.558 223.518 251.918C222.336 252.293 221.039 252.657 219.622 253.001C218.216 253.35 217.143 253.579 216.393 253.688C215.81 253.73 215.231 253.647 214.664 253.438C214.106 253.23 213.622 252.996 213.205 252.73C212.716 252.454 212.341 252.157 212.08 251.834C211.815 251.517 211.685 251.282 211.685 251.126C211.627 250.433 211.966 250.011 212.705 249.855C213.455 249.688 214.148 249.553 214.789 249.438C214.898 249.438 214.981 249.428 215.039 249.397C215.091 249.371 215.148 249.355 215.205 249.355C215.882 249.261 216.82 249.121 218.018 248.938C219.226 248.746 220.523 248.517 221.914 248.251C223.247 247.975 224.606 247.662 225.997 247.313C227.382 246.97 228.632 246.584 229.747 246.168C230.924 245.741 231.674 245.647 231.997 245.897C232.315 246.136 232.393 246.491 232.226 246.959C232.018 247.491 231.643 248.053 231.101 248.647C230.57 249.23 230.044 249.657 229.518 249.918V250.001C229.351 250.116 229.195 250.168 229.06 250.168C228.935 250.168 228.737 250.22 228.476 250.313C228.044 252.188 227.627 253.98 227.226 255.688C226.836 257.397 226.455 258.918 226.08 260.251C225.705 261.626 225.377 262.772 225.101 263.688C224.836 264.595 224.653 265.147 224.56 265.355C224.393 265.621 224.211 265.918 224.018 266.251C223.836 266.574 223.643 266.834 223.435 267.043C223.169 267.308 222.877 267.48 222.56 267.563C222.237 267.647 221.893 267.605 221.518 267.438C220.82 267.178 220.768 265.657 221.351 262.876C221.403 262.616 221.445 262.35 221.476 262.084C221.502 261.824 221.544 261.553 221.601 261.272C220.586 262.188 219.502 263.079 218.351 263.938C217.211 264.787 215.976 265.501 214.643 266.084C213.57 266.558 212.544 266.892 211.56 267.084C210.57 267.267 209.705 267.355 208.955 267.355C207.565 267.355 206.362 267.105 205.351 266.605C204.336 266.095 203.507 265.412 202.872 264.563C202.174 263.704 201.669 262.72 201.351 261.605C201.028 260.48 200.872 259.308 200.872 258.084C200.872 257.543 200.898 257.053 200.955 256.605C201.007 256.147 201.091 255.704 201.205 255.272C201.731 252.563 202.648 249.616 203.955 246.418C205.257 243.209 206.794 240.188 208.56 237.355C210.268 234.595 212.122 232.251 214.122 230.334C216.122 228.407 218.132 227.366 220.164 227.209Z" fill="#4792DC"/>
<path d="M283.681 227.75C286.124 227.542 288.082 227.771 289.556 228.438C291.025 229.104 292.103 229.787 292.786 230.479C293.062 230.745 293.234 231.188 293.306 231.813C293.39 232.427 293.353 232.969 293.202 233.438C293.036 233.979 292.734 234.344 292.306 234.521C291.89 234.703 291.359 234.531 290.723 234H290.786C289.187 232.667 287.004 232.245 284.244 232.729C282.629 232.995 281.056 233.927 279.515 235.521C277.973 237.12 276.562 239.063 275.286 241.354C273.952 243.703 272.812 246.198 271.869 248.834C270.937 251.474 270.286 253.948 269.911 256.25C269.702 258.167 270.124 259.781 271.181 261.084C272.249 262.391 273.879 263.042 276.077 263.042C276.504 263.042 277.025 263 277.64 262.917C278.249 262.834 278.796 262.745 279.286 262.646C280.827 262.271 282.265 261.698 283.598 260.917C284.931 260.141 286.181 259.386 287.348 258.646C287.832 258.328 288.286 258.021 288.702 257.729C289.129 257.427 289.562 257.141 289.994 256.875C290.421 256.615 290.744 256.578 290.952 256.771C291.171 256.953 291.306 257.229 291.348 257.604C291.4 258.037 291.348 258.5 291.181 259C291.025 259.5 290.765 259.917 290.39 260.25C289.973 260.724 289.348 261.292 288.515 261.959C287.692 262.625 286.775 263.281 285.765 263.917C284.692 264.557 283.598 265.162 282.473 265.729C281.348 266.287 280.254 266.667 279.202 266.875C278.338 266.99 277.562 267.073 276.869 267.125C276.171 267.182 275.478 267.209 274.786 267.209C272.77 267.209 271.098 266.875 269.765 266.209C268.431 265.542 267.39 264.646 266.64 263.521C265.89 262.396 265.4 261.12 265.181 259.688C264.973 258.245 264.952 256.75 265.119 255.209C265.437 252.432 266.223 249.495 267.473 246.396C268.723 243.302 270.228 240.417 271.994 237.75C273.702 235.084 275.582 232.823 277.64 230.959C279.692 229.099 281.707 228.031 283.681 227.75Z" fill="#4792DC"/>
<path d="M329.76 236.791C329.76 238.083 329.438 239.307 328.802 240.458C328.161 241.599 327.307 242.645 326.24 243.604C325.115 244.562 323.828 245.458 322.385 246.291C320.953 247.114 319.411 247.869 317.76 248.562C319.094 250.161 320.427 251.927 321.76 253.854C323.094 255.77 324.313 257.578 325.427 259.27C326.12 260.187 326.771 261.125 327.385 262.083C328.01 263.041 328.583 263.869 329.115 264.562C329.917 265.687 330.323 266.572 330.323 267.208C330.323 267.625 330.161 267.875 329.844 267.958C329.521 268.041 329.12 268 328.635 267.833C328.146 267.739 327.641 267.541 327.115 267.25C326.583 266.947 326.104 266.635 325.677 266.312C325.354 266.052 324.849 265.453 324.156 264.52C323.458 263.593 322.635 262.489 321.677 261.208C321.036 260.406 320.344 259.52 319.594 258.562C318.844 257.604 318.099 256.645 317.365 255.687C316.557 254.729 315.766 253.802 314.99 252.895C314.224 251.979 313.521 251.177 312.885 250.479C311.969 250.802 311.078 251.057 310.219 251.25C309.37 251.432 308.521 251.625 307.677 251.833C307.563 251.89 307.427 252.291 307.26 253.041C307.104 253.791 306.979 254.619 306.885 255.52C306.771 256.479 306.661 257.406 306.552 258.291C306.438 259.166 306.365 259.739 306.323 260C306.099 261.541 305.917 262.802 305.781 263.77C305.656 264.729 305.563 265.343 305.51 265.604C305.411 266.078 305.224 266.572 304.948 267.083C304.682 267.583 304.391 267.994 304.073 268.312C303.75 268.687 303.417 268.989 303.073 269.208C302.724 269.416 302.448 269.468 302.24 269.354C301.917 269.26 301.703 268.932 301.594 268.375C301.479 267.807 301.427 267.177 301.427 266.479C301.427 265.895 301.438 265.302 301.469 264.687C301.495 264.062 301.536 263.541 301.594 263.125C301.646 262.375 301.724 261.135 301.823 259.395C301.932 257.661 302.12 255.572 302.385 253.125C301.854 253.333 301.271 253.494 300.635 253.604C299.995 253.703 299.385 253.75 298.802 253.75C296.979 253.75 296.292 253.343 296.719 252.52C297.146 251.687 298.51 250.953 300.802 250.312C300.854 250.312 300.958 250.281 301.115 250.208C301.281 250.125 301.813 249.953 302.719 249.687C302.87 247.437 303.052 245.182 303.26 242.916C303.479 240.656 303.698 238.593 303.906 236.729C304.073 234.854 304.219 233.281 304.344 232C304.479 230.724 304.578 229.974 304.635 229.75C304.844 229.281 305.12 228.807 305.469 228.333C305.813 227.849 306.203 227.416 306.635 227.041C307.01 226.724 307.391 226.474 307.781 226.291C308.182 226.099 308.521 226.083 308.802 226.25C309.328 226.406 309.656 226.739 309.781 227.25C309.917 227.75 309.958 228.697 309.906 230.083C310.917 229.974 312.12 229.89 313.51 229.833C314.896 229.781 316.344 229.807 317.844 229.916C319.271 230.031 320.698 230.203 322.115 230.437C323.531 230.677 324.823 231.062 325.99 231.604C327.115 232.135 328.021 232.828 328.719 233.687C329.411 234.536 329.76 235.572 329.76 236.791ZM309.677 233.75C309.469 235.364 309.208 237.458 308.906 240.041C308.615 242.625 308.26 245.307 307.844 248.083C309.703 247.447 311.646 246.729 313.677 245.937C315.703 245.135 317.573 244.27 319.281 243.354C320.932 242.453 322.302 241.536 323.385 240.604C324.479 239.677 325.031 238.724 325.031 237.75C325.031 236.906 324.563 236.218 323.635 235.687C322.703 235.145 321.49 234.718 319.99 234.395C318.5 234.135 316.849 233.953 315.031 233.854C313.224 233.744 311.438 233.708 309.677 233.75Z" fill="#4792DC"/>
<path d="M343.906 235.355C344.766 235.355 345.208 235.73 345.24 236.48C345.266 237.23 345.167 238.303 344.948 239.688C344.906 239.844 344.885 239.99 344.885 240.126C344.885 240.251 344.854 240.396 344.802 240.563L344.719 240.73C344.604 241.412 344.469 242.225 344.302 243.167C344.146 244.1 343.938 245.417 343.677 247.126C345.219 246.266 346.948 245.542 348.865 244.959C350.792 244.376 352.635 243.896 354.385 243.521C356.146 243.146 357.698 242.896 359.031 242.771C360.365 242.636 361.245 242.594 361.677 242.646C361.995 242.704 362.354 242.813 362.76 242.98C363.161 243.136 363.495 243.313 363.76 243.521C363.969 243.787 364.099 244.058 364.156 244.334C364.208 244.6 364.052 244.834 363.677 245.042C363.094 245.308 362.677 245.48 362.427 245.563C362.188 245.646 362.042 245.688 361.99 245.688C361.891 245.73 361.813 245.751 361.76 245.751C361.703 245.751 361.594 245.782 361.427 245.834C360.37 246.115 359.036 246.469 357.427 246.896C355.828 247.313 354.177 247.787 352.469 248.313C350.719 248.912 349.016 249.574 347.365 250.292C345.708 251.001 344.266 251.787 343.031 252.646C342.974 253.23 342.932 253.792 342.906 254.334C342.891 254.865 342.885 255.365 342.885 255.834C342.885 257.167 342.974 258.355 343.156 259.396C343.333 260.438 343.667 261.225 344.156 261.751C344.682 262.292 345.307 262.678 346.031 262.896C346.75 263.105 347.536 263.209 348.385 263.209C348.719 263.209 349.12 263.209 349.594 263.209C350.078 263.209 350.531 263.157 350.948 263.042C351.906 262.834 352.958 262.532 354.115 262.126C355.266 261.725 356.396 261.282 357.51 260.792C358.578 260.376 359.563 259.938 360.469 259.48C361.385 259.021 362.135 258.636 362.719 258.313C362.927 258.219 363.406 258.157 364.156 258.126C364.906 258.1 365.516 258.188 365.99 258.396C366.417 258.62 366.51 258.995 366.26 259.521C366.021 260.053 365.031 260.824 363.281 261.834H363.365C362.448 262.376 361.307 262.98 359.948 263.646C358.583 264.313 357.135 264.938 355.594 265.521C353.995 266.105 352.385 266.6 350.76 267.001C349.135 267.407 347.656 267.605 346.323 267.605C344.823 267.605 343.646 267.365 342.802 266.876C341.302 266.032 340.229 264.938 339.594 263.605C338.953 262.271 338.531 260.751 338.323 259.042C338.099 257.334 338.146 254.766 338.469 251.334C338.786 247.891 339.219 244.058 339.76 239.834C339.911 238.876 340.177 238.105 340.552 237.521C340.927 236.938 341.328 236.49 341.76 236.167C342.135 235.85 342.516 235.636 342.906 235.521C343.307 235.412 343.641 235.355 343.906 235.355ZM362.552 225.751C364.427 225.334 365.615 225.23 366.115 225.438C366.625 225.646 366.719 225.995 366.385 226.48C366.063 226.969 365.49 227.501 364.656 228.084C363.833 228.667 363.031 229.146 362.24 229.521C361.807 229.678 361.016 229.928 359.865 230.271C358.724 230.62 357.385 231.011 355.844 231.438C354.229 231.87 352.542 232.329 350.781 232.813C349.031 233.287 347.385 233.709 345.844 234.084C344.229 234.516 342.802 234.865 341.552 235.126C340.302 235.391 339.432 235.553 338.948 235.605C338.365 235.662 337.786 235.584 337.219 235.376C336.661 235.157 336.177 234.886 335.76 234.563C335.271 234.245 334.885 233.928 334.594 233.605C334.302 233.287 334.156 232.995 334.156 232.73C334.042 232.136 334.323 231.719 334.99 231.48C335.656 231.245 336.333 231.074 337.031 230.959C337.516 230.959 338.745 230.771 340.719 230.396C342.688 230.021 344.979 229.574 347.594 229.042C350.146 228.516 352.802 227.949 355.552 227.334C358.302 226.709 360.635 226.183 362.552 225.751Z" fill="#4792DC"/>
<path d="M381.122 226.25C381.538 226.406 381.799 226.64 381.913 226.958C382.023 227.281 382.023 227.869 381.913 228.729C381.856 228.828 381.83 228.875 381.83 228.875V229.208C382.58 229.041 383.377 228.895 384.226 228.77C385.085 228.635 385.966 228.51 386.872 228.395C387.299 228.343 387.736 228.307 388.184 228.291C388.643 228.265 389.111 228.25 389.601 228.25C391.195 228.25 392.752 228.427 394.268 228.77C395.794 229.104 397.111 229.703 398.226 230.562C399.351 231.411 400.19 232.557 400.747 234C401.315 235.447 401.486 237.26 401.268 239.437C401.111 240.937 400.502 242.614 399.434 244.458C398.361 246.291 397.028 248.166 395.434 250.083C393.835 252.057 392.049 253.994 390.08 255.895C388.106 257.786 386.132 259.531 384.163 261.125C382.19 262.781 380.294 264.197 378.476 265.375C376.653 266.541 375.08 267.364 373.747 267.833C372.788 268.114 372.106 268.119 371.705 267.854C371.315 267.578 371.122 267.224 371.122 266.791C371.065 266.432 371.153 266.052 371.393 265.645C371.627 265.244 371.882 264.989 372.163 264.875C372.424 264.781 372.794 264.625 373.268 264.416C373.752 264.197 374.231 263.927 374.705 263.604C374.757 262.218 374.856 260.349 374.997 258C375.132 255.656 375.278 253.145 375.434 250.479C375.601 247.869 375.757 245.244 375.913 242.604C376.08 239.968 376.236 237.635 376.393 235.604L375.747 235.833C375.382 235.947 374.986 236.099 374.559 236.291C374.127 236.474 373.752 236.619 373.434 236.729C372.684 236.994 372.163 237.062 371.872 236.937C371.58 236.802 371.434 236.541 371.434 236.166C371.377 235.791 371.44 235.354 371.622 234.854C371.815 234.343 372.018 233.843 372.226 233.354C372.278 233.26 372.309 233.197 372.309 233.166C372.309 233.14 372.335 233.072 372.393 232.958C372.502 232.75 372.94 232.432 373.705 232C374.481 231.572 375.507 231.145 376.788 230.729C376.841 230.453 376.872 230.239 376.872 230.083C376.872 229.916 376.872 229.864 376.872 229.916C377.091 229.447 377.382 228.958 377.747 228.458C378.122 227.947 378.523 227.5 378.955 227.125C379.382 226.75 379.794 226.489 380.184 226.333C380.585 226.166 380.924 226.161 381.205 226.312L381.122 226.25ZM396.476 238.791C396.585 237.458 396.382 236.411 395.872 235.645C395.372 234.869 394.663 234.265 393.747 233.833C392.841 233.458 391.799 233.224 390.622 233.125C389.455 233.015 388.288 232.989 387.122 233.041C385.413 233.099 383.57 233.39 381.601 233.916C381.486 235.515 381.335 237.468 381.143 239.77C380.96 242.062 380.768 244.432 380.559 246.875C380.335 249.333 380.132 251.739 379.955 254.083C379.773 256.432 379.601 258.432 379.434 260.083C381.252 258.697 383.122 257.099 385.038 255.291C386.955 253.474 388.736 251.604 390.393 249.687C392.044 247.76 393.424 245.849 394.538 243.958C395.663 242.072 396.309 240.349 396.476 238.791Z" fill="#4792DC"/>
<path d="M409.598 263.749C409.65 262.848 409.744 261.624 409.869 260.082C410.004 258.53 410.15 256.791 410.306 254.874C410.416 253.015 410.546 251.072 410.702 249.041C410.869 247.015 411.035 245.015 411.202 243.041C411.353 241.124 411.504 239.312 411.66 237.603C411.827 235.895 411.963 234.478 412.077 233.353C411.869 233.411 411.692 233.452 411.556 233.478C411.416 233.51 411.27 233.551 411.119 233.603L409.827 233.916C409.187 234.082 408.603 234.114 408.077 233.999C407.546 233.89 407.098 233.702 406.723 233.437C406.291 233.228 405.952 232.978 405.702 232.687C405.463 232.395 405.348 232.14 405.348 231.916C405.249 231.28 405.535 230.869 406.202 230.687C406.869 230.494 407.567 230.322 408.306 230.166C408.416 230.166 408.515 230.155 408.598 230.124C408.681 230.098 408.77 230.082 408.869 230.082C409.463 229.973 410.202 229.843 411.077 229.687C411.952 229.52 412.848 229.364 413.765 229.207C414.666 229.041 415.525 228.885 416.348 228.728C417.181 228.562 417.832 228.426 418.306 228.312C420.332 227.895 421.624 227.77 422.181 227.937C422.749 228.093 422.874 228.374 422.556 228.791C422.233 229.28 421.619 229.791 420.702 230.332C419.796 230.864 418.869 231.312 417.91 231.687V231.603C417.853 231.661 417.806 231.687 417.765 231.687C417.707 231.687 417.65 231.707 417.598 231.749H417.431C417.332 232.723 417.145 234.343 416.869 236.603C416.603 238.869 416.312 241.364 415.994 244.082C415.785 245.848 415.567 247.655 415.348 249.499C415.14 251.332 414.952 253.098 414.785 254.791C414.577 256.499 414.39 258.093 414.223 259.562C414.067 261.02 413.916 262.26 413.765 263.27C414.291 263.176 414.952 263.072 415.744 262.957C416.546 262.848 417.4 262.718 418.306 262.562C418.733 262.395 419.098 262.426 419.39 262.645C419.681 262.853 419.853 263.119 419.91 263.437C419.963 263.812 419.832 264.228 419.515 264.687C419.192 265.135 418.629 265.515 417.827 265.832C417.187 266.114 416.463 266.369 415.66 266.603C414.869 266.843 414.077 267.041 413.285 267.207C412.421 267.364 411.603 267.51 410.827 267.645C410.062 267.77 409.379 267.832 408.785 267.832C408.202 267.832 407.64 267.728 407.098 267.52C406.567 267.312 406.124 267.051 405.765 266.728C405.332 266.452 404.994 266.14 404.744 265.791C404.504 265.447 404.39 265.166 404.39 264.957C404.39 264.265 404.796 263.89 405.619 263.832C406.452 263.78 407.244 263.749 407.994 263.749H409.598Z" fill="#4792DC"/>
<path d="M459.354 228.48C459.782 228.595 460.104 228.647 460.313 228.647C460.896 228.746 461.438 228.865 461.938 229.001C462.448 229.141 462.657 229.501 462.563 230.084C462.505 230.782 462.021 231.225 461.104 231.417C460.198 231.6 459.052 231.74 457.667 231.834C455.802 232.001 454.063 232.157 452.438 232.292C450.813 232.417 449.198 232.615 447.604 232.876C447.49 233.308 447.407 233.813 447.354 234.397C447.089 235.73 446.782 237.386 446.438 239.355C446.089 241.329 445.729 243.412 445.354 245.605C444.922 247.845 444.505 250.095 444.104 252.355C443.714 254.621 443.334 256.688 442.959 258.563C442.584 260.428 442.271 262.001 442.021 263.292C441.782 264.574 441.615 265.345 441.521 265.605C441.146 266.621 440.526 267.449 439.667 268.084C438.818 268.725 438.261 269.016 438 268.959C437.776 268.907 437.625 268.657 437.542 268.209C437.469 267.751 437.438 267.204 437.438 266.563C437.438 265.928 437.469 265.261 437.542 264.563C437.625 263.871 437.719 263.261 437.834 262.73C437.886 262.246 437.99 261.35 438.146 260.042C438.313 258.74 438.526 257.204 438.792 255.438C439.011 253.678 439.271 251.772 439.563 249.73C439.854 247.678 440.13 245.662 440.396 243.688C440.657 241.72 440.922 239.85 441.188 238.084C441.464 236.324 441.709 234.855 441.917 233.688C441.11 233.787 440.386 233.907 439.75 234.042C439.11 234.183 438.443 234.303 437.75 234.397C435.886 234.662 434.365 234.891 433.188 235.084C432.021 235.266 431.219 235.308 430.792 235.209C428.667 234.933 427.172 234.266 426.313 233.209C425.99 232.834 425.979 232.501 426.271 232.209C426.563 231.907 427.026 231.647 427.667 231.438C428.302 231.23 429.011 231.074 429.792 230.959C430.568 230.85 431.25 230.746 431.834 230.647C431.943 230.595 432.354 230.537 433.063 230.48C433.782 230.428 434.521 230.35 435.271 230.251C436.282 230.141 437.459 230.032 438.792 229.917C440.125 229.808 441.511 229.678 442.959 229.522C443.485 228.72 444.198 228.063 445.104 227.563C446.021 227.053 446.693 227.011 447.125 227.438C447.386 227.704 447.568 227.907 447.667 228.042C447.776 228.183 447.86 228.49 447.917 228.959C450.375 228.751 452.625 228.595 454.667 228.48C456.719 228.371 458.255 228.371 459.271 228.48H459.354Z" fill="#4792DC"/>
</svg>
